  0
SECTION
  2
HEADER
  9
$ACADVER
  1
AC1021
  9
$ACADMAINTVER
 70
    25
  9
$DWGCODEPAGE
  3
ANSI_1251
  9
$INSBASE
 10
0.0
 20
0.0
 30
0.0
  9
$EXTMIN
 10
-140.1178
 20
-326.0364
 30
0.0
  9
$EXTMAX
 10
140.1178
 20
326.0362
 30
0.0
  9
$LIMMIN
 10
0.0
 20
0.0
  9
$LIMMAX
 10
12.0
 20
9.0
  9
$ORTHOMODE
 70
     0
  9
$REGENMODE
 70
     1
  9
$FILLMODE
 70
     1
  9
$QTEXTMODE
 70
     0
  9
$MIRRTEXT
 70
     1
  9
$LTSCALE
 40
1.0
  9
$ATTMODE
 70
     1
  9
$TEXTSIZE
 40
0.2
  9
$TRACEWID
 40
0.05
  9
$TEXTSTYLE
  7
Standard
  9
$CLAYER
  8
0
  9
$CELTYPE
  6
ByLayer
  9
$CECOLOR
 62
   256
  9
$CELTSCALE
 40
1.0
  9
$DISPSILH
 70
     0
  9
$DIMSCALE
 40
1.0
  9
$DIMASZ
 40
0.18
  9
$DIMEXO
 40
0.0625
  9
$DIMDLI
 40
0.38
  9
$DIMRND
 40
0.0
  9
$DIMDLE
 40
0.0
  9
$DIMEXE
 40
0.18
  9
$DIMTP
 40
0.0
  9
$DIMTM
 40
0.0
  9
$DIMTXT
 40
0.18
  9
$DIMCEN
 40
0.09
  9
$DIMTSZ
 40
0.0
  9
$DIMTOL
 70
     0
  9
$DIMLIM
 70
     0
  9
$DIMTIH
 70
     1
  9
$DIMTOH
 70
     1
  9
$DIMSE1
 70
     0
  9
$DIMSE2
 70
     0
  9
$DIMTAD
 70
     0
  9
$DIMZIN
 70
     0
  9
$DIMBLK
  1

  9
$DIMASO
 70
     1
  9
$DIMSHO
 70
     1
  9
$DIMPOST
  1

  9
$DIMAPOST
  1

  9
$DIMALT
 70
     0
  9
$DIMALTD
 70
     2
  9
$DIMALTF
 40
25.4
  9
$DIMLFAC
 40
1.0
  9
$DIMTOFL
 70
     0
  9
$DIMTVP
 40
0.0
  9
$DIMTIX
 70
     0
  9
$DIMSOXD
 70
     0
  9
$DIMSAH
 70
     0
  9
$DIMBLK1
  1

  9
$DIMBLK2
  1

  9
$DIMSTYLE
  2
Standard
  9
$DIMCLRD
 70
     0
  9
$DIMCLRE
 70
     0
  9
$DIMCLRT
 70
     0
  9
$DIMTFAC
 40
1.0
  9
$DIMGAP
 40
0.09
  9
$DIMJUST
 70
     0
  9
$DIMSD1
 70
     0
  9
$DIMSD2
 70
     0
  9
$DIMTOLJ
 70
     1
  9
$DIMTZIN
 70
     0
  9
$DIMALTZ
 70
     0
  9
$DIMALTTZ
 70
     0
  9
$DIMUPT
 70
     0
  9
$DIMDEC
 70
     4
  9
$DIMTDEC
 70
     4
  9
$DIMALTU
 70
     2
  9
$DIMALTTD
 70
     2
  9
$DIMTXSTY
  7
Standard
  9
$DIMAUNIT
 70
     0
  9
$DIMADEC
 70
     0
  9
$DIMALTRND
 40
0.0
  9
$DIMAZIN
 70
     0
  9
$DIMDSEP
 70
    46
  9
$DIMATFIT
 70
     3
  9
$DIMFRAC
 70
     0
  9
$DIMLDRBLK
  1

  9
$DIMLUNIT
 70
     2
  9
$DIMLWD
 70
    -2
  9
$DIMLWE
 70
    -2
  9
$DIMTMOVE
 70
     0
  9
$DIMFXL
 40
1.0
  9
$DIMFXLON
 70
     0
  9
$DIMJOGANG
 40
0.7853981633974483
  9
$DIMTFILL
 70
     0
  9
$DIMTFILLCLR
 70
     0
  9
$DIMARCSYM
 70
     0
  9
$DIMLTYPE
  6

  9
$DIMLTEX1
  6

  9
$DIMLTEX2
  6

  9
$LUNITS
 70
     2
  9
$LUPREC
 70
     4
  9
$SKETCHINC
 40
0.1
  9
$FILLETRAD
 40
0.5
  9
$AUNITS
 70
     0
  9
$AUPREC
 70
     0
  9
$MENU
  1
.
  9
$ELEVATION
 40
0.0
  9
$PELEVATION
 40
0.0
  9
$THICKNESS
 40
0.0
  9
$LIMCHECK
 70
     0
  9
$CHAMFERA
 40
0.5
  9
$CHAMFERB
 40
0.5
  9
$CHAMFERC
 40
1.0
  9
$CHAMFERD
 40
0.0
  9
$SKPOLY
 70
     0
  9
$TDCREATE
 40
2458095.570255694
  9
$TDUCREATE
 40
2458095.403589028
  9
$TDUPDATE
 40
2458095.570255706
  9
$TDUUPDATE
 40
2458095.40358904
  9
$TDINDWG
 40
0.0000000116
  9
$TDUSRTIMER
 40
0.0000000116
  9
$USRTIMER
 70
     1
  9
$ANGBASE
 50
0.0
  9
$ANGDIR
 70
     0
  9
$PDMODE
 70
     0
  9
$PDSIZE
 40
0.0
  9
$PLINEWID
 40
0.0
  9
$SPLFRAME
 70
     0
  9
$SPLINETYPE
 70
     6
  9
$SPLINESEGS
 70
     8
  9
$HANDSEED
  5
64
  9
$SURFTAB1
 70
     6
  9
$SURFTAB2
 70
     6
  9
$SURFTYPE
 70
     6
  9
$SURFU
 70
     6
  9
$SURFV
 70
     6
  9
$UCSBASE
  2

  9
$UCSNAME
  2

  9
$UCSORG
 10
0.0
 20
0.0
 30
0.0
  9
$UCSXDIR
 10
1.0
 20
0.0
 30
0.0
  9
$UCSYDIR
 10
0.0
 20
1.0
 30
0.0
  9
$UCSORTHOREF
  2

  9
$UCSORTHOVIEW
 70
     0
  9
$UCSORGTOP
 10
0.0
 20
0.0
 30
0.0
  9
$UCSORGBOTTOM
 10
0.0
 20
0.0
 30
0.0
  9
$UCSORGLEFT
 10
0.0
 20
0.0
 30
0.0
  9
$UCSORGRIGHT
 10
0.0
 20
0.0
 30
0.0
  9
$UCSORGFRONT
 10
0.0
 20
0.0
 30
0.0
  9
$UCSORGBACK
 10
0.0
 20
0.0
 30
0.0
  9
$PUCSBASE
  2

  9
$PUCSNAME
  2

  9
$PUCSORG
 10
0.0
 20
0.0
 30
0.0
  9
$PUCSXDIR
 10
1.0
 20
0.0
 30
0.0
  9
$PUCSYDIR
 10
0.0
 20
1.0
 30
0.0
  9
$PUCSORTHOREF
  2

  9
$PUCSORTHOVIEW
 70
     0
  9
$PUCSORGTOP
 10
0.0
 20
0.0
 30
0.0
  9
$PUCSORGBOTTOM
 10
0.0
 20
0.0
 30
0.0
  9
$PUCSORGLEFT
 10
0.0
 20
0.0
 30
0.0
  9
$PUCSORGRIGHT
 10
0.0
 20
0.0
 30
0.0
  9
$PUCSORGFRONT
 10
0.0
 20
0.0
 30
0.0
  9
$PUCSORGBACK
 10
0.0
 20
0.0
 30
0.0
  9
$USERI1
 70
     0
  9
$USERI2
 70
     0
  9
$USERI3
 70
     0
  9
$USERI4
 70
     0
  9
$USERI5
 70
     0
  9
$USERR1
 40
0.0
  9
$USERR2
 40
0.0
  9
$USERR3
 40
0.0
  9
$USERR4
 40
0.0
  9
$USERR5
 40
0.0
  9
$WORLDVIEW
 70
     1
  9
$SHADEDGE
 70
     3
  9
$SHADEDIF
 70
    70
  9
$TILEMODE
 70
     1
  9
$MAXACTVP
 70
    64
  9
$PINSBASE
 10
0.0
 20
0.0
 30
0.0
  9
$PLIMCHECK
 70
     0
  9
$PEXTMIN
 10
1.000000000000000E+20
 20
1.000000000000000E+20
 30
1.000000000000000E+20
  9
$PEXTMAX
 10
-1.000000000000000E+20
 20
-1.000000000000000E+20
 30
-1.000000000000000E+20
  9
$PLIMMIN
 10
0.0
 20
0.0
  9
$PLIMMAX
 10
12.0
 20
9.0
  9
$UNITMODE
 70
     0
  9
$VISRETAIN
 70
     1
  9
$PLINEGEN
 70
     0
  9
$PSLTSCALE
 70
     1
  9
$TREEDEPTH
 70
  3020
  9
$CMLSTYLE
  2
Standard
  9
$CMLJUST
 70
     0
  9
$CMLSCALE
 40
1.0
  9
$PROXYGRAPHICS
 70
     1
  9
$MEASUREMENT
 70
     0
  9
$CELWEIGHT
370
    -1
  9
$ENDCAPS
280
     0
  9
$JOINSTYLE
280
     0
  9
$LWDISPLAY
290
     0
  9
$INSUNITS
 70
     4
  9
$HYPERLINKBASE
  1

  9
$STYLESHEET
  1

  9
$XEDIT
290
     1
  9
$CEPSNTYPE
380
     0
  9
$PSTYLEMODE
290
     1
  9
$FINGERPRINTGUID
  2
{1D16480A-0B53-4EFD-8648-C54F98D1B6E5}
  9
$VERSIONGUID
  2
{FAEB1C32-E019-11D5-929B-00C0DF256EC4}
  9
$EXTNAMES
290
     1
  9
$PSVPSCALE
 40
0.0
  9
$OLESTARTUP
290
     0
  9
$SORTENTS
280
   127
  9
$INDEXCTL
280
     0
  9
$HIDETEXT
280
     1
  9
$XCLIPFRAME
290
     0
  9
$HALOGAP
280
     0
  9
$OBSCOLOR
 70
   257
  9
$OBSLTYPE
280
     0
  9
$INTERSECTIONDISPLAY
280
     0
  9
$INTERSECTIONCOLOR
 70
   257
  9
$DIMASSOC
280
     2
  9
$PROJECTNAME
  1

  9
$CAMERADISPLAY
290
     0
  9
$LENSLENGTH
 40
50.0
  9
$CAMERAHEIGHT
 40
0.0
  9
$STEPSPERSEC
 40
2.0
  9
$STEPSIZE
 40
6.0
  9
$3DDWFPREC
 40
2.0
  9
$PSOLWIDTH
 40
0.25
  9
$PSOLHEIGHT
 40
4.0
  9
$LOFTANG1
 40
1.570796326794897
  9
$LOFTANG2
 40
1.570796326794897
  9
$LOFTMAG1
 40
0.0
  9
$LOFTMAG2
 40
0.0
  9
$LOFTPARAM
 70
     7
  9
$LOFTNORMALS
280
     1
  9
$LATITUDE
 40
37.795
  9
$LONGITUDE
 40
-122.394
  9
$NORTHDIRECTION
 40
0.0
  9
$TIMEZONE
 70
 -8000
  9
$LIGHTGLYPHDISPLAY
280
     1
  9
$TILEMODELIGHTSYNCH
280
     1
  9
$SOLIDHIST
280
     1
  9
$SHOWHIST
280
     1
  9
$DWFFRAME
280
     2
  9
$DGNFRAME
280
     2
  9
$REALWORLDSCALE
290
     1
  9
$INTERFERECOLOR
 62
   256
  9
$CSHADOW
280
     0
  9
$SHADOWPLANELOCATION
 40
0.0
  0
ENDSEC
  0
SECTION
  2
CLASSES
  0
CLASS
  1
ACDBDICTIONARYWDFLT
  2
AcDbDictionaryWithDefault
  3
ObjectDBX Classes
 90
        0
 91
        4
280
     0
281
     0
  0
CLASS
  1
VISUALSTYLE
  2
AcDbVisualStyle
  3
ObjectDBX Classes
 90
     4095
 91
        4
280
     0
281
     0
  0
CLASS
  1
MATERIAL
  2
AcDbMaterial
  3
ObjectDBX Classes
 90
     1153
 91
        4
280
     0
281
     0
  0
ENDSEC
  0
SECTION
  2
TABLES
  0
TABLE
  2
VPORT
  5
8
330
0
100
AcDbSymbolTable
 70
     1
  0
VPORT
  5
29
330
8
100
AcDbSymbolTableRecord
100
AcDbViewportTableRecord
  2
*Active
 70
     0
 10
0.0
 20
0.0
 11
1.0
 21
1.0
 12
10.42990654205607
 22
4.5
 13
0.0
 23
0.0
 14
0.5
 24
0.5
 15
0.5
 25
0.5
 16
0.0
 26
0.0
 36
1.0
 17
0.0
 27
0.0
 37
0.0
 40
9.0
 41
1.972972972850329
 42
50.0
 43
0.0
 44
0.0
 50
0.0
 51
0.0
 71
     0
 72
   100
 73
     1
 74
     3
 75
     0
 76
     0
 77
     0
 78
     0
281
     0
 65
     1
110
0.0
120
0.0
130
0.0
111
1.0
121
0.0
131
0.0
112
0.0
122
1.0
132
0.0
 79
     0
146
0.0
 60
     3
 61
     5
292
     1
282
     1
141
0.0
142
0.0
 63
   250
  0
ENDTAB
  0
TABLE
  2
LTYPE
  5
5
330
0
100
AcDbSymbolTable
 70
     1
  0
LTYPE
  5
14
330
5
100
AcDbSymbolTableRecord
100
AcDbLinetypeTableRecord
  2
ByBlock
 70
     0
  3

 72
    65
 73
     0
 40
0.0
  0
LTYPE
  5
15
330
5
100
AcDbSymbolTableRecord
100
AcDbLinetypeTableRecord
  2
ByLayer
 70
     0
  3

 72
    65
 73
     0
 40
0.0
  0
LTYPE
  5
16
330
5
100
AcDbSymbolTableRecord
100
AcDbLinetypeTableRecord
  2
Continuous
 70
     0
  3
Solid line
 72
    65
 73
     0
 40
0.0
  0
ENDTAB
  0
TABLE
  2
LAYER
  5
2
330
0
100
AcDbSymbolTable
 70
     1
  0
LAYER
  5
10
330
2
100
AcDbSymbolTableRecord
100
AcDbLayerTableRecord
  2
0
 70
     0
 62
     7
  6
Continuous
370
    -3
390
F
347
3E
  0
ENDTAB
  0
TABLE
  2
STYLE
  5
3
330
0
100
AcDbSymbolTable
 70
     1
  0
STYLE
  5
11
330
3
100
AcDbSymbolTableRecord
100
AcDbTextStyleTableRecord
  2
Standard
 70
     0
 40
0.0
 41
1.0
 50
0.0
 71
     0
 42
0.2
  3
txt
  4

  0
ENDTAB
  0
TABLE
  2
VIEW
  5
6
330
0
100
AcDbSymbolTable
 70
     0
  0
ENDTAB
  0
TABLE
  2
UCS
  5
7
330
0
100
AcDbSymbolTable
 70
     0
  0
ENDTAB
  0
TABLE
  2
APPID
  5
9
330
0
100
AcDbSymbolTable
 70
     2
  0
APPID
  5
12
330
9
100
AcDbSymbolTableRecord
100
AcDbRegAppTableRecord
  2
ACAD
 70
     0
  0
APPID
  5
3F
330
9
100
AcDbSymbolTableRecord
100
AcDbRegAppTableRecord
  2
ODA
 70
     0
  0
ENDTAB
  0
TABLE
  2
DIMSTYLE
  5
A
330
0
100
AcDbSymbolTable
 70
     1
100
AcDbDimStyleTable
  0
DIMSTYLE
105
27
330
A
100
AcDbSymbolTableRecord
100
AcDbDimStyleTableRecord
  2
Standard
 70
     0
178
     0
340
11
  0
ENDTAB
  0
TABLE
  2
BLOCK_RECORD
  5
1
330
0
100
AcDbSymbolTable
 70
     1
  0
BLOCK_RECORD
  5
1F
330
1
100
AcDbSymbolTableRecord
100
AcDbBlockTableRecord
  2
*Model_Space
340
22
 70
     0
280
     1
281
     0
  0
BLOCK_RECORD
  5
1B
330
1
100
AcDbSymbolTableRecord
100
AcDbBlockTableRecord
  2
*Paper_Space
340
1E
 70
     0
280
     1
281
     0
  0
BLOCK_RECORD
  5
23
330
1
100
AcDbSymbolTableRecord
100
AcDbBlockTableRecord
  2
*Paper_Space0
340
26
 70
     0
280
     1
281
     0
  0
ENDTAB
  0
ENDSEC
  0
SECTION
  2
BLOCKS
  0
BLOCK
  5
20
330
1F
100
AcDbEntity
  8
0
100
AcDbBlockBegin
  2
*Model_Space
 70
     0
 10
0.0
 20
0.0
 30
0.0
  3
*Model_Space
  1

  0
ENDBLK
  5
21
330
1F
100
AcDbEntity
  8
0
100
AcDbBlockEnd
  0
BLOCK
  5
1C
330
1B
100
AcDbEntity
 67
     1
  8
0
100
AcDbBlockBegin
  2
*Paper_Space
 70
     0
 10
0.0
 20
0.0
 30
0.0
  3
*Paper_Space
  1

  0
ENDBLK
  5
1D
330
1B
100
AcDbEntity
 67
     1
  8
0
100
AcDbBlockEnd
  0
BLOCK
  5
24
330
23
100
AcDbEntity
  8
0
100
AcDbBlockBegin
  2
*Paper_Space0
 70
     0
 10
0.0
 20
0.0
 30
0.0
  3
*Paper_Space0
  1

  0
ENDBLK
  5
25
330
23
100
AcDbEntity
  8
0
100
AcDbBlockEnd
  0
ENDSEC
  0
SECTION
  2
ENTITIES
  0
SPLINE
  5
40
330
1F
100
AcDbEntity
  8
0
 62
   183
370
     9
100
AcDbSpline
210
0.0
220
0.0
230
1.0
 70
    11
 71
     3
 72
   596
 73
   592
 74
     0
 42
0.0000000001
 43
0.0000000001
 40
0.0
 40
0.0
 40
0.0
 40
0.0
 40
0.0067114093959732
 40
0.0067114093959732
 40
0.0067114093959732
 40
0.0067114093959732
 40
0.0134228187919463
 40
0.0134228187919463
 40
0.0134228187919463
 40
0.0134228187919463
 40
0.0201342281879195
 40
0.0201342281879195
 40
0.0201342281879195
 40
0.0201342281879195
 40
0.0268456375838926
 40
0.0268456375838926
 40
0.0268456375838926
 40
0.0268456375838926
 40
0.0335570469798658
 40
0.0335570469798658
 40
0.0335570469798658
 40
0.0335570469798658
 40
0.0402684563758389
 40
0.0402684563758389
 40
0.0402684563758389
 40
0.0402684563758389
 40
0.0469798657718121
 40
0.0469798657718121
 40
0.0469798657718121
 40
0.0469798657718121
 40
0.0536912751677852
 40
0.0536912751677852
 40
0.0536912751677852
 40
0.0536912751677852
 40
0.0604026845637584
 40
0.0604026845637584
 40
0.0604026845637584
 40
0.0604026845637584
 40
0.0671140939597315
 40
0.0671140939597315
 40
0.0671140939597315
 40
0.0671140939597315
 40
0.0738255033557047
 40
0.0738255033557047
 40
0.0738255033557047
 40
0.0738255033557047
 40
0.0805369127516778
 40
0.0805369127516778
 40
0.0805369127516778
 40
0.0805369127516778
 40
0.087248322147651
 40
0.087248322147651
 40
0.087248322147651
 40
0.087248322147651
 40
0.0939597315436242
 40
0.0939597315436242
 40
0.0939597315436242
 40
0.0939597315436242
 40
0.1006711409395973
 40
0.1006711409395973
 40
0.1006711409395973
 40
0.1006711409395973
 40
0.1073825503355705
 40
0.1073825503355705
 40
0.1073825503355705
 40
0.1073825503355705
 40
0.1140939597315436
 40
0.1140939597315436
 40
0.1140939597315436
 40
0.1140939597315436
 40
0.1208053691275168
 40
0.1208053691275168
 40
0.1208053691275168
 40
0.1208053691275168
 40
0.1275167785234899
 40
0.1275167785234899
 40
0.1275167785234899
 40
0.1275167785234899
 40
0.1342281879194631
 40
0.1342281879194631
 40
0.1342281879194631
 40
0.1342281879194631
 40
0.1409395973154362
 40
0.1409395973154362
 40
0.1409395973154362
 40
0.1409395973154362
 40
0.1476510067114094
 40
0.1476510067114094
 40
0.1476510067114094
 40
0.1476510067114094
 40
0.1543624161073825
 40
0.1543624161073825
 40
0.1543624161073825
 40
0.1543624161073825
 40
0.1610738255033557
 40
0.1610738255033557
 40
0.1610738255033557
 40
0.1610738255033557
 40
0.1677852348993289
 40
0.1677852348993289
 40
0.1677852348993289
 40
0.1677852348993289
 40
0.174496644295302
 40
0.174496644295302
 40
0.174496644295302
 40
0.174496644295302
 40
0.1812080536912752
 40
0.1812080536912752
 40
0.1812080536912752
 40
0.1812080536912752
 40
0.1879194630872483
 40
0.1879194630872483
 40
0.1879194630872483
 40
0.1879194630872483
 40
0.1946308724832215
 40
0.1946308724832215
 40
0.1946308724832215
 40
0.1946308724832215
 40
0.2013422818791946
 40
0.2013422818791946
 40
0.2013422818791946
 40
0.2013422818791946
 40
0.2080536912751678
 40
0.2080536912751678
 40
0.2080536912751678
 40
0.2080536912751678
 40
0.2147651006711409
 40
0.2147651006711409
 40
0.2147651006711409
 40
0.2147651006711409
 40
0.2214765100671141
 40
0.2214765100671141
 40
0.2214765100671141
 40
0.2214765100671141
 40
0.2281879194630873
 40
0.2281879194630873
 40
0.2281879194630873
 40
0.2281879194630873
 40
0.2348993288590604
 40
0.2348993288590604
 40
0.2348993288590604
 40
0.2348993288590604
 40
0.2416107382550336
 40
0.2416107382550336
 40
0.2416107382550336
 40
0.2416107382550336
 40
0.2483221476510067
 40
0.2483221476510067
 40
0.2483221476510067
 40
0.2483221476510067
 40
0.2550335570469799
 40
0.2550335570469799
 40
0.2550335570469799
 40
0.2550335570469799
 40
0.261744966442953
 40
0.261744966442953
 40
0.261744966442953
 40
0.261744966442953
 40
0.2684563758389262
 40
0.2684563758389262
 40
0.2684563758389262
 40
0.2684563758389262
 40
0.2751677852348993
 40
0.2751677852348993
 40
0.2751677852348993
 40
0.2751677852348993
 40
0.2818791946308725
 40
0.2818791946308725
 40
0.2818791946308725
 40
0.2818791946308725
 40
0.2885906040268457
 40
0.2885906040268457
 40
0.2885906040268457
 40
0.2885906040268457
 40
0.2953020134228188
 40
0.2953020134228188
 40
0.2953020134228188
 40
0.2953020134228188
 40
0.302013422818792
 40
0.302013422818792
 40
0.302013422818792
 40
0.302013422818792
 40
0.3087248322147651
 40
0.3087248322147651
 40
0.3087248322147651
 40
0.3087248322147651
 40
0.3154362416107382
 40
0.3154362416107382
 40
0.3154362416107382
 40
0.3154362416107382
 40
0.3221476510067114
 40
0.3221476510067114
 40
0.3221476510067114
 40
0.3221476510067114
 40
0.3288590604026846
 40
0.3288590604026846
 40
0.3288590604026846
 40
0.3288590604026846
 40
0.3355704697986577
 40
0.3355704697986577
 40
0.3355704697986577
 40
0.3355704697986577
 40
0.3422818791946309
 40
0.3422818791946309
 40
0.3422818791946309
 40
0.3422818791946309
 40
0.348993288590604
 40
0.348993288590604
 40
0.348993288590604
 40
0.348993288590604
 40
0.3557046979865772
 40
0.3557046979865772
 40
0.3557046979865772
 40
0.3557046979865772
 40
0.3624161073825503
 40
0.3624161073825503
 40
0.3624161073825503
 40
0.3624161073825503
 40
0.3691275167785235
 40
0.3691275167785235
 40
0.3691275167785235
 40
0.3691275167785235
 40
0.3758389261744967
 40
0.3758389261744967
 40
0.3758389261744967
 40
0.3758389261744967
 40
0.3825503355704698
 40
0.3825503355704698
 40
0.3825503355704698
 40
0.3825503355704698
 40
0.3892617449664429
 40
0.3892617449664429
 40
0.3892617449664429
 40
0.3892617449664429
 40
0.3959731543624161
 40
0.3959731543624161
 40
0.3959731543624161
 40
0.3959731543624161
 40
0.4026845637583892
 40
0.4026845637583892
 40
0.4026845637583892
 40
0.4026845637583892
 40
0.4093959731543624
 40
0.4093959731543624
 40
0.4093959731543624
 40
0.4093959731543624
 40
0.4161073825503356
 40
0.4161073825503356
 40
0.4161073825503356
 40
0.4161073825503356
 40
0.4228187919463087
 40
0.4228187919463087
 40
0.4228187919463087
 40
0.4228187919463087
 40
0.4295302013422819
 40
0.4295302013422819
 40
0.4295302013422819
 40
0.4295302013422819
 40
0.436241610738255
 40
0.436241610738255
 40
0.436241610738255
 40
0.436241610738255
 40
0.4429530201342282
 40
0.4429530201342282
 40
0.4429530201342282
 40
0.4429530201342282
 40
0.4496644295302014
 40
0.4496644295302014
 40
0.4496644295302014
 40
0.4496644295302014
 40
0.4563758389261745
 40
0.4563758389261745
 40
0.4563758389261745
 40
0.4563758389261745
 40
0.4630872483221476
 40
0.4630872483221476
 40
0.4630872483221476
 40
0.4630872483221476
 40
0.4697986577181208
 40
0.4697986577181208
 40
0.4697986577181208
 40
0.4697986577181208
 40
0.4765100671140939
 40
0.4765100671140939
 40
0.4765100671140939
 40
0.4765100671140939
 40
0.4832214765100671
 40
0.4832214765100671
 40
0.4832214765100671
 40
0.4832214765100671
 40
0.4899328859060403
 40
0.4899328859060403
 40
0.4899328859060403
 40
0.4899328859060403
 40
0.4966442953020134
 40
0.4966442953020134
 40
0.4966442953020134
 40
0.4966442953020134
 40
0.5033557046979866
 40
0.5033557046979866
 40
0.5033557046979866
 40
0.5033557046979866
 40
0.5100671140939598
 40
0.5100671140939598
 40
0.5100671140939598
 40
0.5100671140939598
 40
0.5167785234899329
 40
0.5167785234899329
 40
0.5167785234899329
 40
0.5167785234899329
 40
0.5234899328859061
 40
0.5234899328859061
 40
0.5234899328859061
 40
0.5234899328859061
 40
0.5302013422818792
 40
0.5302013422818792
 40
0.5302013422818792
 40
0.5302013422818792
 40
0.5369127516778524
 40
0.5369127516778524
 40
0.5369127516778524
 40
0.5369127516778524
 40
0.5436241610738255
 40
0.5436241610738255
 40
0.5436241610738255
 40
0.5436241610738255
 40
0.5503355704697986
 40
0.5503355704697986
 40
0.5503355704697986
 40
0.5503355704697986
 40
0.5570469798657718
 40
0.5570469798657718
 40
0.5570469798657718
 40
0.5570469798657718
 40
0.5637583892617449
 40
0.5637583892617449
 40
0.5637583892617449
 40
0.5637583892617449
 40
0.5704697986577181
 40
0.5704697986577181
 40
0.5704697986577181
 40
0.5704697986577181
 40
0.5771812080536913
 40
0.5771812080536913
 40
0.5771812080536913
 40
0.5771812080536913
 40
0.5838926174496645
 40
0.5838926174496645
 40
0.5838926174496645
 40
0.5838926174496645
 40
0.5906040268456376
 40
0.5906040268456376
 40
0.5906040268456376
 40
0.5906040268456376
 40
0.5973154362416108
 40
0.5973154362416108
 40
0.5973154362416108
 40
0.5973154362416108
 40
0.6040268456375839
 40
0.6040268456375839
 40
0.6040268456375839
 40
0.6040268456375839
 40
0.610738255033557
 40
0.610738255033557
 40
0.610738255033557
 40
0.610738255033557
 40
0.6174496644295302
 40
0.6174496644295302
 40
0.6174496644295302
 40
0.6174496644295302
 40
0.6241610738255033
 40
0.6241610738255033
 40
0.6241610738255033
 40
0.6241610738255033
 40
0.6308724832214765
 40
0.6308724832214765
 40
0.6308724832214765
 40
0.6308724832214765
 40
0.6375838926174496
 40
0.6375838926174496
 40
0.6375838926174496
 40
0.6375838926174496
 40
0.6442953020134228
 40
0.6442953020134228
 40
0.6442953020134228
 40
0.6442953020134228
 40
0.6510067114093959
 40
0.6510067114093959
 40
0.6510067114093959
 40
0.6510067114093959
 40
0.6577181208053692
 40
0.6577181208053692
 40
0.6577181208053692
 40
0.6577181208053692
 40
0.6644295302013423
 40
0.6644295302013423
 40
0.6644295302013423
 40
0.6644295302013423
 40
0.6711409395973155
 40
0.6711409395973155
 40
0.6711409395973155
 40
0.6711409395973155
 40
0.6778523489932886
 40
0.6778523489932886
 40
0.6778523489932886
 40
0.6778523489932886
 40
0.6845637583892618
 40
0.6845637583892618
 40
0.6845637583892618
 40
0.6845637583892618
 40
0.6912751677852349
 40
0.6912751677852349
 40
0.6912751677852349
 40
0.6912751677852349
 40
0.697986577181208
 40
0.697986577181208
 40
0.697986577181208
 40
0.697986577181208
 40
0.7046979865771812
 40
0.7046979865771812
 40
0.7046979865771812
 40
0.7046979865771812
 40
0.7114093959731543
 40
0.7114093959731543
 40
0.7114093959731543
 40
0.7114093959731543
 40
0.7181208053691275
 40
0.7181208053691275
 40
0.7181208053691275
 40
0.7181208053691275
 40
0.7248322147651006
 40
0.7248322147651006
 40
0.7248322147651006
 40
0.7248322147651006
 40
0.7315436241610739
 40
0.7315436241610739
 40
0.7315436241610739
 40
0.7315436241610739
 40
0.738255033557047
 40
0.738255033557047
 40
0.738255033557047
 40
0.738255033557047
 40
0.7449664429530202
 40
0.7449664429530202
 40
0.7449664429530202
 40
0.7449664429530202
 40
0.7516778523489933
 40
0.7516778523489933
 40
0.7516778523489933
 40
0.7516778523489933
 40
0.7583892617449665
 40
0.7583892617449665
 40
0.7583892617449665
 40
0.7583892617449665
 40
0.7651006711409396
 40
0.7651006711409396
 40
0.7651006711409396
 40
0.7651006711409396
 40
0.7718120805369127
 40
0.7718120805369127
 40
0.7718120805369127
 40
0.7718120805369127
 40
0.7785234899328859
 40
0.7785234899328859
 40
0.7785234899328859
 40
0.7785234899328859
 40
0.785234899328859
 40
0.785234899328859
 40
0.785234899328859
 40
0.785234899328859
 40
0.7919463087248322
 40
0.7919463087248322
 40
0.7919463087248322
 40
0.7919463087248322
 40
0.7986577181208053
 40
0.7986577181208053
 40
0.7986577181208053
 40
0.7986577181208053
 40
0.8053691275167785
 40
0.8053691275167785
 40
0.8053691275167785
 40
0.8053691275167785
 40
0.8120805369127517
 40
0.8120805369127517
 40
0.8120805369127517
 40
0.8120805369127517
 40
0.8187919463087249
 40
0.8187919463087249
 40
0.8187919463087249
 40
0.8187919463087249
 40
0.825503355704698
 40
0.825503355704698
 40
0.825503355704698
 40
0.825503355704698
 40
0.8322147651006712
 40
0.8322147651006712
 40
0.8322147651006712
 40
0.8322147651006712
 40
0.8389261744966443
 40
0.8389261744966443
 40
0.8389261744966443
 40
0.8389261744966443
 40
0.8456375838926175
 40
0.8456375838926175
 40
0.8456375838926175
 40
0.8456375838926175
 40
0.8523489932885906
 40
0.8523489932885906
 40
0.8523489932885906
 40
0.8523489932885906
 40
0.8590604026845637
 40
0.8590604026845637
 40
0.8590604026845637
 40
0.8590604026845637
 40
0.8657718120805369
 40
0.8657718120805369
 40
0.8657718120805369
 40
0.8657718120805369
 40
0.87248322147651
 40
0.87248322147651
 40
0.87248322147651
 40
0.87248322147651
 40
0.8791946308724832
 40
0.8791946308724832
 40
0.8791946308724832
 40
0.8791946308724832
 40
0.8859060402684564
 40
0.8859060402684564
 40
0.8859060402684564
 40
0.8859060402684564
 40
0.8926174496644296
 40
0.8926174496644296
 40
0.8926174496644296
 40
0.8926174496644296
 40
0.8993288590604027
 40
0.8993288590604027
 40
0.8993288590604027
 40
0.8993288590604027
 40
0.9060402684563759
 40
0.9060402684563759
 40
0.9060402684563759
 40
0.9060402684563759
 40
0.912751677852349
 40
0.912751677852349
 40
0.912751677852349
 40
0.912751677852349
 40
0.9194630872483222
 40
0.9194630872483222
 40
0.9194630872483222
 40
0.9194630872483222
 40
0.9261744966442953
 40
0.9261744966442953
 40
0.9261744966442953
 40
0.9261744966442953
 40
0.9328859060402684
 40
0.9328859060402684
 40
0.9328859060402684
 40
0.9328859060402684
 40
0.9395973154362416
 40
0.9395973154362416
 40
0.9395973154362416
 40
0.9395973154362416
 40
0.9463087248322147
 40
0.9463087248322147
 40
0.9463087248322147
 40
0.9463087248322147
 40
0.9530201342281879
 40
0.9530201342281879
 40
0.9530201342281879
 40
0.9530201342281879
 40
0.959731543624161
 40
0.959731543624161
 40
0.959731543624161
 40
0.959731543624161
 40
0.9664429530201343
 40
0.9664429530201343
 40
0.9664429530201343
 40
0.9664429530201343
 40
0.9731543624161074
 40
0.9731543624161074
 40
0.9731543624161074
 40
0.9731543624161074
 40
0.9798657718120806
 40
0.9798657718120806
 40
0.9798657718120806
 40
0.9798657718120806
 40
0.9865771812080537
 40
0.9865771812080537
 40
0.9865771812080537
 40
0.9865771812080537
 40
1.0
 40
1.0
 40
1.0
 40
1.0
 10
115.0795
 20
197.1612
 30
0.0
 10
115.0795
 20
197.1612
 30
0.0
 10
115.0578
 20
-197.2019
 30
0.0
 10
115.0578
 20
-197.2019
 30
0.0
 10
115.0578
 20
-197.2019
 30
0.0
 10
115.0578
 20
-197.2019
 30
0.0
 10
115.0158
 20
-198.8034
 30
0.0
 10
115.0158
 20
-198.8034
 30
0.0
 10
115.0158
 20
-198.8034
 30
0.0
 10
115.0158
 20
-198.8034
 30
0.0
 10
114.8902
 20
-200.396
 30
0.0
 10
114.8902
 20
-200.396
 30
0.0
 10
114.8902
 20
-200.396
 30
0.0
 10
114.8902
 20
-200.396
 30
0.0
 10
114.681
 20
-201.9766
 30
0.0
 10
114.681
 20
-201.9766
 30
0.0
 10
114.681
 20
-201.9766
 30
0.0
 10
114.681
 20
-201.9766
 30
0.0
 10
114.3887
 20
-203.5422
 30
0.0
 10
114.3887
 20
-203.5422
 30
0.0
 10
114.3887
 20
-203.5422
 30
0.0
 10
114.3887
 20
-203.5422
 30
0.0
 10
114.0134
 20
-205.0899
 30
0.0
 10
114.0134
 20
-205.0899
 30
0.0
 10
114.0134
 20
-205.0899
 30
0.0
 10
114.0134
 20
-205.0899
 30
0.0
 10
113.5554
 20
-206.6166
 30
0.0
 10
113.5554
 20
-206.6166
 30
0.0
 10
113.5554
 20
-206.6166
 30
0.0
 10
113.5554
 20
-206.6166
 30
0.0
 10
113.0149
 20
-208.1193
 30
0.0
 10
113.0149
 20
-208.1193
 30
0.0
 10
113.0149
 20
-208.1193
 30
0.0
 10
113.0149
 20
-208.1193
 30
0.0
 10
112.392
 20
-209.5951
 30
0.0
 10
112.392
 20
-209.5951
 30
0.0
 10
112.392
 20
-209.5951
 30
0.0
 10
112.392
 20
-209.5951
 30
0.0
 10
111.6904
 20
-211.0361
 30
0.0
 10
111.6904
 20
-211.0361
 30
0.0
 10
111.6904
 20
-211.0361
 30
0.0
 10
111.6904
 20
-211.0361
 30
0.0
 10
110.9146
 20
-212.4347
 30
0.0
 10
110.9146
 20
-212.4347
 30
0.0
 10
110.9146
 20
-212.4347
 30
0.0
 10
110.9146
 20
-212.4347
 30
0.0
 10
110.0666
 20
-213.788
 30
0.0
 10
110.0666
 20
-213.788
 30
0.0
 10
110.0666
 20
-213.788
 30
0.0
 10
110.0666
 20
-213.788
 30
0.0
 10
109.1484
 20
-215.0934
 30
0.0
 10
109.1484
 20
-215.0934
 30
0.0
 10
109.1484
 20
-215.0934
 30
0.0
 10
109.1484
 20
-215.0934
 30
0.0
 10
108.1621
 20
-216.3482
 30
0.0
 10
108.1621
 20
-216.3482
 30
0.0
 10
108.1621
 20
-216.3482
 30
0.0
 10
108.1621
 20
-216.3482
 30
0.0
 10
107.1097
 20
-217.5495
 30
0.0
 10
107.1097
 20
-217.5495
 30
0.0
 10
107.1097
 20
-217.5495
 30
0.0
 10
107.1097
 20
-217.5495
 30
0.0
 10
105.9932
 20
-218.6946
 30
0.0
 10
105.9932
 20
-218.6946
 30
0.0
 10
105.9932
 20
-218.6946
 30
0.0
 10
105.9932
 20
-218.6946
 30
0.0
 10
104.8148
 20
-219.7809
 30
0.0
 10
104.8148
 20
-219.7809
 30
0.0
 10
104.8148
 20
-219.7809
 30
0.0
 10
104.8148
 20
-219.7809
 30
0.0
 10
103.5801
 20
-220.8027
 30
0.0
 10
103.5801
 20
-220.8027
 30
0.0
 10
103.5801
 20
-220.8027
 30
0.0
 10
103.5801
 20
-220.8027
 30
0.0
 10
102.2954
 20
-221.7549
 30
0.0
 10
102.2954
 20
-221.7549
 30
0.0
 10
102.2954
 20
-221.7549
 30
0.0
 10
102.2954
 20
-221.7549
 30
0.0
 10
100.9636
 20
-222.6361
 30
0.0
 10
100.9636
 20
-222.6361
 30
0.0
 10
100.9636
 20
-222.6361
 30
0.0
 10
100.9636
 20
-222.6361
 30
0.0
 10
99.5879
 20
-223.4446
 30
0.0
 10
99.5879
 20
-223.4446
 30
0.0
 10
99.5879
 20
-223.4446
 30
0.0
 10
99.5879
 20
-223.4446
 30
0.0
 10
98.1711
 20
-224.1787
 30
0.0
 10
98.1711
 20
-224.1787
 30
0.0
 10
98.1711
 20
-224.1787
 30
0.0
 10
98.1711
 20
-224.1787
 30
0.0
 10
96.7161
 20
-224.837
 30
0.0
 10
96.7161
 20
-224.837
 30
0.0
 10
96.7161
 20
-224.837
 30
0.0
 10
96.7161
 20
-224.837
 30
0.0
 10
95.2261
 20
-225.4177
 30
0.0
 10
95.2261
 20
-225.4177
 30
0.0
 10
95.2261
 20
-225.4177
 30
0.0
 10
95.2261
 20
-225.4177
 30
0.0
 10
93.7039
 20
-225.9193
 30
0.0
 10
93.7039
 20
-225.9193
 30
0.0
 10
93.7039
 20
-225.9193
 30
0.0
 10
93.7039
 20
-225.9193
 30
0.0
 10
-77.2957
 20
-280.7908
 30
0.0
 10
-77.2957
 20
-280.7908
 30
0.0
 10
-77.2957
 20
-280.7908
 30
0.0
 10
-77.2957
 20
-280.7908
 30
0.0
 10
-78.4145
 20
-281.068
 30
0.0
 10
-78.4145
 20
-281.068
 30
0.0
 10
-78.4145
 20
-281.068
 30
0.0
 10
-78.4145
 20
-281.068
 30
0.0
 10
-79.5403
 20
-281.3015
 30
0.0
 10
-79.5403
 20
-281.3015
 30
0.0
 10
-79.5403
 20
-281.3015
 30
0.0
 10
-79.5403
 20
-281.3015
 30
0.0
 10
-80.6715
 20
-281.4915
 30
0.0
 10
-80.6715
 20
-281.4915
 30
0.0
 10
-80.6715
 20
-281.4915
 30
0.0
 10
-80.6715
 20
-281.4915
 30
0.0
 10
-81.807
 20
-281.6378
 30
0.0
 10
-81.807
 20
-281.6378
 30
0.0
 10
-81.807
 20
-281.6378
 30
0.0
 10
-81.807
 20
-281.6378
 30
0.0
 10
-82.9456
 20
-281.7407
 30
0.0
 10
-82.9456
 20
-281.7407
 30
0.0
 10
-82.9456
 20
-281.7407
 30
0.0
 10
-82.9456
 20
-281.7407
 30
0.0
 10
-84.086
 20
-281.8001
 30
0.0
 10
-84.086
 20
-281.8001
 30
0.0
 10
-84.086
 20
-281.8001
 30
0.0
 10
-84.086
 20
-281.8001
 30
0.0
 10
-85.227
 20
-281.816
 30
0.0
 10
-85.227
 20
-281.816
 30
0.0
 10
-85.227
 20
-281.816
 30
0.0
 10
-85.227
 20
-281.816
 30
0.0
 10
-86.3675
 20
-281.7886
 30
0.0
 10
-86.3675
 20
-281.7886
 30
0.0
 10
-86.3675
 20
-281.7886
 30
0.0
 10
-86.3675
 20
-281.7886
 30
0.0
 10
-87.5059
 20
-281.7178
 30
0.0
 10
-87.5059
 20
-281.7178
 30
0.0
 10
-87.5059
 20
-281.7178
 30
0.0
 10
-87.5059
 20
-281.7178
 30
0.0
 10
-88.6412
 20
-281.6037
 30
0.0
 10
-88.6412
 20
-281.6037
 30
0.0
 10
-88.6412
 20
-281.6037
 30
0.0
 10
-88.6412
 20
-281.6037
 30
0.0
 10
-89.7723
 20
-281.4463
 30
0.0
 10
-89.7723
 20
-281.4463
 30
0.0
 10
-89.7723
 20
-281.4463
 30
0.0
 10
-89.7723
 20
-281.4463
 30
0.0
 10
-90.8977
 20
-281.2457
 30
0.0
 10
-90.8977
 20
-281.2457
 30
0.0
 10
-90.8977
 20
-281.2457
 30
0.0
 10
-90.8977
 20
-281.2457
 30
0.0
 10
-92.0162
 20
-281.0019
 30
0.0
 10
-92.0162
 20
-281.0019
 30
0.0
 10
-92.0162
 20
-281.0019
 30
0.0
 10
-92.0162
 20
-281.0019
 30
0.0
 10
-93.1266
 20
-280.7149
 30
0.0
 10
-93.1266
 20
-280.7149
 30
0.0
 10
-93.1266
 20
-280.7149
 30
0.0
 10
-93.1266
 20
-280.7149
 30
0.0
 10
-94.2278
 20
-280.3848
 30
0.0
 10
-94.2278
 20
-280.3848
 30
0.0
 10
-94.2278
 20
-280.3848
 30
0.0
 10
-94.2278
 20
-280.3848
 30
0.0
 10
-95.3184
 20
-280.0116
 30
0.0
 10
-95.3184
 20
-280.0116
 30
0.0
 10
-95.3184
 20
-280.0116
 30
0.0
 10
-95.3184
 20
-280.0116
 30
0.0
 10
-96.3939
 20
-279.5967
 30
0.0
 10
-96.3939
 20
-279.5967
 30
0.0
 10
-96.3939
 20
-279.5967
 30
0.0
 10
-96.3939
 20
-279.5967
 30
0.0
 10
-97.4498
 20
-279.1421
 30
0.0
 10
-97.4498
 20
-279.1421
 30
0.0
 10
-97.4498
 20
-279.1421
 30
0.0
 10
-97.4498
 20
-279.1421
 30
0.0
 10
-98.4854
 20
-278.6484
 30
0.0
 10
-98.4854
 20
-278.6484
 30
0.0
 10
-98.4854
 20
-278.6484
 30
0.0
 10
-98.4854
 20
-278.6484
 30
0.0
 10
-99.4996
 20
-278.1166
 30
0.0
 10
-99.4996
 20
-278.1166
 30
0.0
 10
-99.4996
 20
-278.1166
 30
0.0
 10
-99.4996
 20
-278.1166
 30
0.0
 10
-100.4913
 20
-277.5472
 30
0.0
 10
-100.4913
 20
-277.5472
 30
0.0
 10
-100.4913
 20
-277.5472
 30
0.0
 10
-100.4913
 20
-277.5472
 30
0.0
 10
-101.4596
 20
-276.9411
 30
0.0
 10
-101.4596
 20
-276.9411
 30
0.0
 10
-101.4596
 20
-276.9411
 30
0.0
 10
-101.4596
 20
-276.9411
 30
0.0
 10
-102.4034
 20
-276.299
 30
0.0
 10
-102.4034
 20
-276.299
 30
0.0
 10
-102.4034
 20
-276.299
 30
0.0
 10
-102.4034
 20
-276.299
 30
0.0
 10
-103.3217
 20
-275.6218
 30
0.0
 10
-103.3217
 20
-275.6218
 30
0.0
 10
-103.3217
 20
-275.6218
 30
0.0
 10
-103.3217
 20
-275.6218
 30
0.0
 10
-104.2137
 20
-274.9101
 30
0.0
 10
-104.2137
 20
-274.9101
 30
0.0
 10
-104.2137
 20
-274.9101
 30
0.0
 10
-104.2137
 20
-274.9101
 30
0.0
 10
-105.0783
 20
-274.1648
 30
0.0
 10
-105.0783
 20
-274.1648
 30
0.0
 10
-105.0783
 20
-274.1648
 30
0.0
 10
-105.0783
 20
-274.1648
 30
0.0
 10
-105.9145
 20
-273.3865
 30
0.0
 10
-105.9145
 20
-273.3865
 30
0.0
 10
-105.9145
 20
-273.3865
 30
0.0
 10
-105.9145
 20
-273.3865
 30
0.0
 10
-106.7213
 20
-272.5761
 30
0.0
 10
-106.7213
 20
-272.5761
 30
0.0
 10
-106.7213
 20
-272.5761
 30
0.0
 10
-106.7213
 20
-272.5761
 30
0.0
 10
-107.4978
 20
-271.7343
 30
0.0
 10
-107.4978
 20
-271.7343
 30
0.0
 10
-107.4978
 20
-271.7343
 30
0.0
 10
-107.4978
 20
-271.7343
 30
0.0
 10
-108.2427
 20
-270.8619
 30
0.0
 10
-108.2427
 20
-270.8619
 30
0.0
 10
-108.2427
 20
-270.8619
 30
0.0
 10
-108.2427
 20
-270.8619
 30
0.0
 10
-108.9553
 20
-269.9597
 30
0.0
 10
-108.9553
 20
-269.9597
 30
0.0
 10
-108.9553
 20
-269.9597
 30
0.0
 10
-108.9553
 20
-269.9597
 30
0.0
 10
-109.6345
 20
-269.0283
 30
0.0
 10
-109.6345
 20
-269.0283
 30
0.0
 10
-109.6345
 20
-269.0283
 30
0.0
 10
-109.6345
 20
-269.0283
 30
0.0
 10
-110.2777
 20
-268.0715
 30
0.0
 10
-110.2777
 20
-268.0715
 30
0.0
 10
-110.2777
 20
-268.0715
 30
0.0
 10
-110.2777
 20
-268.0715
 30
0.0
 10
-110.8823
 20
-267.0931
 30
0.0
 10
-110.8823
 20
-267.0931
 30
0.0
 10
-110.8823
 20
-267.0931
 30
0.0
 10
-110.8823
 20
-267.0931
 30
0.0
 10
-111.4481
 20
-266.0944
 30
0.0
 10
-111.4481
 20
-266.0944
 30
0.0
 10
-111.4481
 20
-266.0944
 30
0.0
 10
-111.4481
 20
-266.0944
 30
0.0
 10
-111.9745
 20
-265.0765
 30
0.0
 10
-111.9745
 20
-265.0765
 30
0.0
 10
-111.9745
 20
-265.0765
 30
0.0
 10
-111.9745
 20
-265.0765
 30
0.0
 10
-112.4613
 20
-264.0407
 30
0.0
 10
-112.4613
 20
-264.0407
 30
0.0
 10
-112.4613
 20
-264.0407
 30
0.0
 10
-112.4613
 20
-264.0407
 30
0.0
 10
-112.9079
 20
-262.9883
 30
0.0
 10
-112.9079
 20
-262.9883
 30
0.0
 10
-112.9079
 20
-262.9883
 30
0.0
 10
-112.9079
 20
-262.9883
 30
0.0
 10
-113.314
 20
-261.9203
 30
0.0
 10
-113.314
 20
-261.9203
 30
0.0
 10
-113.314
 20
-261.9203
 30
0.0
 10
-113.314
 20
-261.9203
 30
0.0
 10
-113.679
 20
-260.838
 30
0.0
 10
-113.679
 20
-260.838
 30
0.0
 10
-113.679
 20
-260.838
 30
0.0
 10
-113.679
 20
-260.838
 30
0.0
 10
-114.0027
 20
-259.7428
 30
0.0
 10
-114.0027
 20
-259.7428
 30
0.0
 10
-114.0027
 20
-259.7428
 30
0.0
 10
-114.0027
 20
-259.7428
 30
0.0
 10
-114.2845
 20
-258.6356
 30
0.0
 10
-114.2845
 20
-258.6356
 30
0.0
 10
-114.2845
 20
-258.6356
 30
0.0
 10
-114.2845
 20
-258.6356
 30
0.0
 10
-114.5242
 20
-257.5179
 30
0.0
 10
-114.5242
 20
-257.5179
 30
0.0
 10
-114.5242
 20
-257.5179
 30
0.0
 10
-114.5242
 20
-257.5179
 30
0.0
 10
-114.7211
 20
-256.3907
 30
0.0
 10
-114.7211
 20
-256.3907
 30
0.0
 10
-114.7211
 20
-256.3907
 30
0.0
 10
-114.7211
 20
-256.3907
 30
0.0
 10
-114.8751
 20
-255.2554
 30
0.0
 10
-114.8751
 20
-255.2554
 30
0.0
 10
-114.8751
 20
-255.2554
 30
0.0
 10
-114.8751
 20
-255.2554
 30
0.0
 10
-114.9857
 20
-254.1131
 30
0.0
 10
-114.9857
 20
-254.1131
 30
0.0
 10
-114.9857
 20
-254.1131
 30
0.0
 10
-114.9857
 20
-254.1131
 30
0.0
 10
-115.0522
 20
-252.9651
 30
0.0
 10
-115.0522
 20
-252.9651
 30
0.0
 10
-115.0522
 20
-252.9651
 30
0.0
 10
-115.0522
 20
-252.9651
 30
0.0
 10
-115.0745
 20
-251.8125
 30
0.0
 10
-115.0745
 20
-251.8125
 30
0.0
 10
-115.0745
 20
-251.8125
 30
0.0
 10
-115.0745
 20
-251.8125
 30
0.0
 10
-115.0654
 20
251.7927
 30
0.0
 10
-115.0654
 20
251.7927
 30
0.0
 10
-115.0654
 20
251.7927
 30
0.0
 10
-115.0654
 20
251.7927
 30
0.0
 10
-115.0432
 20
252.9452
 30
0.0
 10
-115.0432
 20
252.9452
 30
0.0
 10
-115.0432
 20
252.9452
 30
0.0
 10
-115.0432
 20
252.9452
 30
0.0
 10
-114.9769
 20
254.0931
 30
0.0
 10
-114.9769
 20
254.0931
 30
0.0
 10
-114.9769
 20
254.0931
 30
0.0
 10
-114.9769
 20
254.0931
 30
0.0
 10
-114.8669
 20
255.235
 30
0.0
 10
-114.8669
 20
255.235
 30
0.0
 10
-114.8669
 20
255.235
 30
0.0
 10
-114.8669
 20
255.235
 30
0.0
 10
-114.7135
 20
256.3699
 30
0.0
 10
-114.7135
 20
256.3699
 30
0.0
 10
-114.7135
 20
256.3699
 30
0.0
 10
-114.7135
 20
256.3699
 30
0.0
 10
-114.5172
 20
257.4966
 30
0.0
 10
-114.5172
 20
257.4966
 30
0.0
 10
-114.5172
 20
257.4966
 30
0.0
 10
-114.5172
 20
257.4966
 30
0.0
 10
-114.2783
 20
258.6138
 30
0.0
 10
-114.2783
 20
258.6138
 30
0.0
 10
-114.2783
 20
258.6138
 30
0.0
 10
-114.2783
 20
258.6138
 30
0.0
 10
-113.9973
 20
259.7203
 30
0.0
 10
-113.9973
 20
259.7203
 30
0.0
 10
-113.9973
 20
259.7203
 30
0.0
 10
-113.9973
 20
259.7203
 30
0.0
 10
-113.6744
 20
260.815
 30
0.0
 10
-113.6744
 20
260.815
 30
0.0
 10
-113.6744
 20
260.815
 30
0.0
 10
-113.6744
 20
260.815
 30
0.0
 10
-113.3103
 20
261.8967
 30
0.0
 10
-113.3103
 20
261.8967
 30
0.0
 10
-113.3103
 20
261.8967
 30
0.0
 10
-113.3103
 20
261.8967
 30
0.0
 10
-112.9051
 20
262.9641
 30
0.0
 10
-112.9051
 20
262.9641
 30
0.0
 10
-112.9051
 20
262.9641
 30
0.0
 10
-112.9051
 20
262.9641
 30
0.0
 10
-112.4592
 20
264.016
 30
0.0
 10
-112.4592
 20
264.016
 30
0.0
 10
-112.4592
 20
264.016
 30
0.0
 10
-112.4592
 20
264.016
 30
0.0
 10
-111.9732
 20
265.0513
 30
0.0
 10
-111.9732
 20
265.0513
 30
0.0
 10
-111.9732
 20
265.0513
 30
0.0
 10
-111.9732
 20
265.0513
 30
0.0
 10
-111.4473
 20
266.0687
 30
0.0
 10
-111.4473
 20
266.0687
 30
0.0
 10
-111.4473
 20
266.0687
 30
0.0
 10
-111.4473
 20
266.0687
 30
0.0
 10
-110.8819
 20
267.0672
 30
0.0
 10
-110.8819
 20
267.0672
 30
0.0
 10
-110.8819
 20
267.0672
 30
0.0
 10
-110.8819
 20
267.0672
 30
0.0
 10
-110.2776
 20
268.0453
 30
0.0
 10
-110.2776
 20
268.0453
 30
0.0
 10
-110.2776
 20
268.0453
 30
0.0
 10
-110.2776
 20
268.0453
 30
0.0
 10
-109.6346
 20
269.0021
 30
0.0
 10
-109.6346
 20
269.0021
 30
0.0
 10
-109.6346
 20
269.0021
 30
0.0
 10
-109.6346
 20
269.0021
 30
0.0
 10
-108.9553
 20
269.9335
 30
0.0
 10
-108.9553
 20
269.9335
 30
0.0
 10
-108.9553
 20
269.9335
 30
0.0
 10
-108.9553
 20
269.9335
 30
0.0
 10
-108.2428
 20
270.8357
 30
0.0
 10
-108.2428
 20
270.8357
 30
0.0
 10
-108.2428
 20
270.8357
 30
0.0
 10
-108.2428
 20
270.8357
 30
0.0
 10
-107.4978
 20
271.7081
 30
0.0
 10
-107.4978
 20
271.7081
 30
0.0
 10
-107.4978
 20
271.7081
 30
0.0
 10
-107.4978
 20
271.7081
 30
0.0
 10
-106.7213
 20
272.5498
 30
0.0
 10
-106.7213
 20
272.5498
 30
0.0
 10
-106.7213
 20
272.5498
 30
0.0
 10
-106.7213
 20
272.5498
 30
0.0
 10
-105.9146
 20
273.3603
 30
0.0
 10
-105.9146
 20
273.3603
 30
0.0
 10
-105.9146
 20
273.3603
 30
0.0
 10
-105.9146
 20
273.3603
 30
0.0
 10
-105.0784
 20
274.1385
 30
0.0
 10
-105.0784
 20
274.1385
 30
0.0
 10
-105.0784
 20
274.1385
 30
0.0
 10
-105.0784
 20
274.1385
 30
0.0
 10
-104.2138
 20
274.8839
 30
0.0
 10
-104.2138
 20
274.8839
 30
0.0
 10
-104.2138
 20
274.8839
 30
0.0
 10
-104.2138
 20
274.8839
 30
0.0
 10
-103.3218
 20
275.5955
 30
0.0
 10
-103.3218
 20
275.5955
 30
0.0
 10
-103.3218
 20
275.5955
 30
0.0
 10
-103.3218
 20
275.5955
 30
0.0
 10
-102.4034
 20
276.2728
 30
0.0
 10
-102.4034
 20
276.2728
 30
0.0
 10
-102.4034
 20
276.2728
 30
0.0
 10
-102.4034
 20
276.2728
 30
0.0
 10
-101.4596
 20
276.9148
 30
0.0
 10
-101.4596
 20
276.9148
 30
0.0
 10
-101.4596
 20
276.9148
 30
0.0
 10
-101.4596
 20
276.9148
 30
0.0
 10
-100.4913
 20
277.521
 30
0.0
 10
-100.4913
 20
277.521
 30
0.0
 10
-100.4913
 20
277.521
 30
0.0
 10
-100.4913
 20
277.521
 30
0.0
 10
-99.4996
 20
278.0903
 30
0.0
 10
-99.4996
 20
278.0903
 30
0.0
 10
-99.4996
 20
278.0903
 30
0.0
 10
-99.4996
 20
278.0903
 30
0.0
 10
-98.4854
 20
278.6222
 30
0.0
 10
-98.4854
 20
278.6222
 30
0.0
 10
-98.4854
 20
278.6222
 30
0.0
 10
-98.4854
 20
278.6222
 30
0.0
 10
-97.4499
 20
279.1158
 30
0.0
 10
-97.4499
 20
279.1158
 30
0.0
 10
-97.4499
 20
279.1158
 30
0.0
 10
-97.4499
 20
279.1158
 30
0.0
 10
-96.3939
 20
279.5705
 30
0.0
 10
-96.3939
 20
279.5705
 30
0.0
 10
-96.3939
 20
279.5705
 30
0.0
 10
-96.3939
 20
279.5705
 30
0.0
 10
-95.3184
 20
279.9853
 30
0.0
 10
-95.3184
 20
279.9853
 30
0.0
 10
-95.3184
 20
279.9853
 30
0.0
 10
-95.3184
 20
279.9853
 30
0.0
 10
-94.2277
 20
280.3586
 30
0.0
 10
-94.2277
 20
280.3586
 30
0.0
 10
-94.2277
 20
280.3586
 30
0.0
 10
-94.2277
 20
280.3586
 30
0.0
 10
-93.1264
 20
280.6889
 30
0.0
 10
-93.1264
 20
280.6889
 30
0.0
 10
-93.1264
 20
280.6889
 30
0.0
 10
-93.1264
 20
280.6889
 30
0.0
 10
-92.0157
 20
280.9761
 30
0.0
 10
-92.0157
 20
280.9761
 30
0.0
 10
-92.0157
 20
280.9761
 30
0.0
 10
-92.0157
 20
280.9761
 30
0.0
 10
-90.8967
 20
281.2203
 30
0.0
 10
-90.8967
 20
281.2203
 30
0.0
 10
-90.8967
 20
281.2203
 30
0.0
 10
-90.8967
 20
281.2203
 30
0.0
 10
-89.7709
 20
281.4213
 30
0.0
 10
-89.7709
 20
281.4213
 30
0.0
 10
-89.7709
 20
281.4213
 30
0.0
 10
-89.7709
 20
281.4213
 30
0.0
 10
-88.6394
 20
281.5791
 30
0.0
 10
-88.6394
 20
281.5791
 30
0.0
 10
-88.6394
 20
281.5791
 30
0.0
 10
-88.6394
 20
281.5791
 30
0.0
 10
-87.5035
 20
281.6937
 30
0.0
 10
-87.5035
 20
281.6937
 30
0.0
 10
-87.5035
 20
281.6937
 30
0.0
 10
-87.5035
 20
281.6937
 30
0.0
 10
-86.3644
 20
281.765
 30
0.0
 10
-86.3644
 20
281.765
 30
0.0
 10
-86.3644
 20
281.765
 30
0.0
 10
-86.3644
 20
281.765
 30
0.0
 10
-85.2235
 20
281.7929
 30
0.0
 10
-85.2235
 20
281.7929
 30
0.0
 10
-85.2235
 20
281.7929
 30
0.0
 10
-85.2235
 20
281.7929
 30
0.0
 10
-84.082
 20
281.7774
 30
0.0
 10
-84.082
 20
281.7774
 30
0.0
 10
-84.082
 20
281.7774
 30
0.0
 10
-84.082
 20
281.7774
 30
0.0
 10
-82.941
 20
281.7184
 30
0.0
 10
-82.941
 20
281.7184
 30
0.0
 10
-82.941
 20
281.7184
 30
0.0
 10
-82.941
 20
281.7184
 30
0.0
 10
-81.802
 20
281.616
 30
0.0
 10
-81.802
 20
281.616
 30
0.0
 10
-81.802
 20
281.616
 30
0.0
 10
-81.802
 20
281.616
 30
0.0
 10
-80.6662
 20
281.4699
 30
0.0
 10
-80.6662
 20
281.4699
 30
0.0
 10
-80.6662
 20
281.4699
 30
0.0
 10
-80.6662
 20
281.4699
 30
0.0
 10
-79.5346
 20
281.2802
 30
0.0
 10
-79.5346
 20
281.2802
 30
0.0
 10
-79.5346
 20
281.2802
 30
0.0
 10
-79.5346
 20
281.2802
 30
0.0
 10
-78.4087
 20
281.0469
 30
0.0
 10
-78.4087
 20
281.0469
 30
0.0
 10
-78.4087
 20
281.0469
 30
0.0
 10
-78.4087
 20
281.0469
 30
0.0
 10
-77.2898
 20
280.7698
 30
0.0
 10
-77.2898
 20
280.7698
 30
0.0
 10
-77.2898
 20
280.7698
 30
0.0
 10
-77.2898
 20
280.7698
 30
0.0
 10
93.7033
 20
225.8958
 30
0.0
 10
93.7033
 20
225.8958
 30
0.0
 10
93.7033
 20
225.8958
 30
0.0
 10
93.7033
 20
225.8958
 30
0.0
 10
95.2255
 20
225.3941
 30
0.0
 10
95.2255
 20
225.3941
 30
0.0
 10
95.2255
 20
225.3941
 30
0.0
 10
95.2255
 20
225.3941
 30
0.0
 10
96.7157
 20
224.8129
 30
0.0
 10
96.7157
 20
224.8129
 30
0.0
 10
96.7157
 20
224.8129
 30
0.0
 10
96.7157
 20
224.8129
 30
0.0
 10
98.1706
 20
224.1539
 30
0.0
 10
98.1706
 20
224.1539
 30
0.0
 10
98.1706
 20
224.1539
 30
0.0
 10
98.1706
 20
224.1539
 30
0.0
 10
99.5876
 20
223.419
 30
0.0
 10
99.5876
 20
223.419
 30
0.0
 10
99.5876
 20
223.419
 30
0.0
 10
99.5876
 20
223.419
 30
0.0
 10
100.9635
 20
222.6097
 30
0.0
 10
100.9635
 20
222.6097
 30
0.0
 10
100.9635
 20
222.6097
 30
0.0
 10
100.9635
 20
222.6097
 30
0.0
 10
102.2952
 20
221.7279
 30
0.0
 10
102.2952
 20
221.7279
 30
0.0
 10
102.2952
 20
221.7279
 30
0.0
 10
102.2952
 20
221.7279
 30
0.0
 10
103.58
 20
220.7751
 30
0.0
 10
103.58
 20
220.7751
 30
0.0
 10
103.58
 20
220.7751
 30
0.0
 10
103.58
 20
220.7751
 30
0.0
 10
104.8148
 20
219.7532
 30
0.0
 10
104.8148
 20
219.7532
 30
0.0
 10
104.8148
 20
219.7532
 30
0.0
 10
104.8148
 20
219.7532
 30
0.0
 10
105.9932
 20
218.6669
 30
0.0
 10
105.9932
 20
218.6669
 30
0.0
 10
105.9932
 20
218.6669
 30
0.0
 10
105.9932
 20
218.6669
 30
0.0
 10
107.1097
 20
217.5217
 30
0.0
 10
107.1097
 20
217.5217
 30
0.0
 10
107.1097
 20
217.5217
 30
0.0
 10
107.1097
 20
217.5217
 30
0.0
 10
108.1621
 20
216.3204
 30
0.0
 10
108.1621
 20
216.3204
 30
0.0
 10
108.1621
 20
216.3204
 30
0.0
 10
108.1621
 20
216.3204
 30
0.0
 10
109.1483
 20
215.0657
 30
0.0
 10
109.1483
 20
215.0657
 30
0.0
 10
109.1483
 20
215.0657
 30
0.0
 10
109.1483
 20
215.0657
 30
0.0
 10
110.0666
 20
213.7603
 30
0.0
 10
110.0666
 20
213.7603
 30
0.0
 10
110.0666
 20
213.7603
 30
0.0
 10
110.0666
 20
213.7603
 30
0.0
 10
110.9146
 20
212.4069
 30
0.0
 10
110.9146
 20
212.4069
 30
0.0
 10
110.9146
 20
212.4069
 30
0.0
 10
110.9146
 20
212.4069
 30
0.0
 10
111.6904
 20
211.0084
 30
0.0
 10
111.6904
 20
211.0084
 30
0.0
 10
111.6904
 20
211.0084
 30
0.0
 10
111.6904
 20
211.0084
 30
0.0
 10
112.392
 20
209.5674
 30
0.0
 10
112.392
 20
209.5674
 30
0.0
 10
112.392
 20
209.5674
 30
0.0
 10
112.392
 20
209.5674
 30
0.0
 10
113.0157
 20
208.091
 30
0.0
 10
113.0157
 20
208.091
 30
0.0
 10
113.0157
 20
208.091
 30
0.0
 10
113.0157
 20
208.091
 30
0.0
 10
113.5587
 20
206.5868
 30
0.0
 10
113.5587
 20
206.5868
 30
0.0
 10
113.5587
 20
206.5868
 30
0.0
 10
113.5587
 20
206.5868
 30
0.0
 10
114.0203
 20
205.058
 30
0.0
 10
114.0203
 20
205.058
 30
0.0
 10
114.0203
 20
205.058
 30
0.0
 10
114.0203
 20
205.058
 30
0.0
 10
114.3996
 20
203.508
 30
0.0
 10
114.3996
 20
203.508
 30
0.0
 10
114.3996
 20
203.508
 30
0.0
 10
114.3996
 20
203.508
 30
0.0
 10
114.696
 20
201.94
 30
0.0
 10
114.696
 20
201.94
 30
0.0
 10
114.696
 20
201.94
 30
0.0
 10
114.696
 20
201.94
 30
0.0
 10
114.9085
 20
200.3574
 30
0.0
 10
114.9085
 20
200.3574
 30
0.0
 10
114.9085
 20
200.3574
 30
0.0
 10
114.9085
 20
200.3574
 30
0.0
 10
115.0366
 20
198.7633
 30
0.0
 10
115.0366
 20
198.7633
 30
0.0
 10
115.0366
 20
198.7633
 30
0.0
 10
115.0366
 20
198.7633
 30
0.0
 10
115.0795
 20
197.1612
 30
0.0
 10
115.0795
 20
197.1612
 30
0.0
  0
SPLINE
  5
41
330
1F
100
AcDbEntity
  8
0
 62
   183
370
     9
100
AcDbSpline
210
0.0
220
0.0
230
1.0
 70
    11
 71
     3
 72
    20
 73
    16
 74
     0
 42
0.0000000001
 43
0.0000000001
 40
0.0
 40
0.0
 40
0.0
 40
0.0
 40
0.2
 40
0.2
 40
0.2
 40
0.2
 40
0.4
 40
0.4
 40
0.4
 40
0.4
 40
0.6
 40
0.6
 40
0.6
 40
0.6
 40
1.0
 40
1.0
 40
1.0
 40
1.0
 10
140.0797
 20
235.9999
 30
0.0
 10
140.0797
 20
235.9999
 30
0.0
 10
140.0797
 20
-236.0002
 30
0.0
 10
140.0797
 20
-236.0002
 30
0.0
 10
140.0797
 20
-236.0002
 30
0.0
 10
140.0797
 20
-236.0002
 30
0.0
 10
-140.0626
 20
-326.0001
 30
0.0
 10
-140.0626
 20
-326.0001
 30
0.0
 10
-140.0626
 20
-326.0001
 30
0.0
 10
-140.0626
 20
-326.0001
 30
0.0
 10
-140.0797
 20
325.9999
 30
0.0
 10
-140.0797
 20
325.9999
 30
0.0
 10
-140.0797
 20
325.9999
 30
0.0
 10
-140.0797
 20
325.9999
 30
0.0
 10
140.0797
 20
235.9999
 30
0.0
 10
140.0797
 20
235.9999
 30
0.0
  0
ENDSEC
  0
SECTION
  2
OBJECTS
  0
DICTIONARY
  5
C
330
0
100
AcDbDictionary
281
     1
  3
ACAD_GROUP
350
D
  3
ACAD_LAYOUT
350
1A
  3
ACAD_MATERIAL
350
3B
  3
ACAD_MLEADERSTYLE
350
63
  3
ACAD_MLINESTYLE
350
17
  3
ACAD_PLOTSETTINGS
350
19
  3
ACAD_PLOTSTYLENAME
350
E
  3
ACAD_TABLESTYLE
350
62
  3
ACAD_VISUALSTYLE
350
2A
  0
DICTIONARY
  5
D
102
{ACAD_REACTORS
330
C
102
}
330
C
100
AcDbDictionary
281
     1
  0
DICTIONARY
  5
1A
102
{ACAD_REACTORS
330
C
102
}
330
C
100
AcDbDictionary
281
     1
  3
Layout1
350
1E
  3
Layout2
350
26
  3
Model
350
22
  0
DICTIONARY
  5
3B
102
{ACAD_REACTORS
330
C
102
}
330
C
100
AcDbDictionary
281
     1
  3
ByBlock
350
3D
  3
ByLayer
350
3C
  3
Global
350
3E
  0
DICTIONARY
  5
63
102
{ACAD_REACTORS
330
C
102
}
330
C
100
AcDbDictionary
281
     1
  0
DICTIONARY
  5
17
102
{ACAD_REACTORS
330
C
102
}
330
C
100
AcDbDictionary
281
     1
  3
Standard
350
18
  0
DICTIONARY
  5
19
102
{ACAD_REACTORS
330
C
102
}
330
C
100
AcDbDictionary
281
     1
  0
ACDBDICTIONARYWDFLT
  5
E
102
{ACAD_REACTORS
330
C
102
}
330
C
100
AcDbDictionary
281
     1
  3
Normal
350
F
100
AcDbDictionaryWithDefault
340
F
  0
DICTIONARY
  5
62
102
{ACAD_REACTORS
330
C
102
}
330
C
100
AcDbDictionary
281
     1
  0
DICTIONARY
  5
2A
102
{ACAD_REACTORS
330
C
102
}
330
C
100
AcDbDictionary
281
     1
  3
2dWireframe
350
2F
  3
3D Hidden
350
31
  3
3dWireframe
350
30
  3
Basic
350
32
  3
Brighten
350
36
  3
ColorChange
350
3A
  3
Conceptual
350
34
  3
Dim
350
35
  3
Facepattern
350
39
  3
Flat
350
2B
  3
FlatWithEdges
350
2C
  3
Gouraud
350
2D
  3
GouraudWithEdges
350
2E
  3
Linepattern
350
38
  3
Realistic
350
33
  3
Thicken
350
37
  0
LAYOUT
  5
1E
102
{ACAD_REACTORS
330
1A
102
}
330
1A
100
AcDbPlotSettings
  1

  2
none_device
  4

  6

 40
0.0
 41
0.0
 42
0.0
 43
0.0
 44
0.0
 45
0.0
 46
0.0
 47
0.0
 48
0.0
 49
0.0
140
0.0
141
0.0
142
1.0
143
1.0
 70
   688
 72
     0
 73
     0
 74
     5
  7

 75
    16
 76
     0
 77
     2
 78
   300
147
1.0
148
0.0
149
0.0
100
AcDbLayout
  1
Layout1
 70
     1
 71
     1
 10
0.0
 20
0.0
 11
12.0
 21
9.0
 12
0.0
 22
0.0
 32
0.0
 14
1.000000000000000E+20
 24
1.000000000000000E+20
 34
1.000000000000000E+20
 15
-1.000000000000000E+20
 25
-1.000000000000000E+20
 35
-1.000000000000000E+20
146
0.0
 13
0.0
 23
0.0
 33
0.0
 16
1.0
 26
0.0
 36
0.0
 17
0.0
 27
1.0
 37
0.0
 76
     0
330
1B
  0
LAYOUT
  5
26
102
{ACAD_REACTORS
330
1A
102
}
330
1A
100
AcDbPlotSettings
  1

  2
none_device
  4

  6

 40
0.0
 41
0.0
 42
0.0
 43
0.0
 44
0.0
 45
0.0
 46
0.0
 47
0.0
 48
0.0
 49
0.0
140
0.0
141
0.0
142
1.0
143
1.0
 70
   688
 72
     0
 73
     0
 74
     5
  7

 75
    16
 76
     0
 77
     2
 78
   300
147
1.0
148
0.0
149
0.0
100
AcDbLayout
  1
Layout2
 70
     1
 71
     2
 10
0.0
 20
0.0
 11
0.0
 21
0.0
 12
0.0
 22
0.0
 32
0.0
 14
0.0
 24
0.0
 34
0.0
 15
0.0
 25
0.0
 35
0.0
146
0.0
 13
0.0
 23
0.0
 33
0.0
 16
1.0
 26
0.0
 36
0.0
 17
0.0
 27
1.0
 37
0.0
 76
     0
330
23
  0
LAYOUT
  5
22
102
{ACAD_REACTORS
330
1A
102
}
330
1A
100
AcDbPlotSettings
  1

  2
none_device
  4

  6

 40
0.0
 41
0.0
 42
0.0
 43
0.0
 44
0.0
 45
0.0
 46
0.0
 47
0.0
 48
0.0
 49
0.0
140
0.0
141
0.0
142
1.0
143
1.0
 70
  1712
 72
     0
 73
     0
 74
     0
  7

 75
     0
 76
     0
 77
     2
 78
   300
147
1.0
148
0.0
149
0.0
100
AcDbLayout
  1
Model
 70
     1
 71
     0
 10
0.0
 20
0.0
 11
12.0
 21
9.0
 12
0.0
 22
0.0
 32
0.0
 14
-140.1178
 24
-326.0364
 34
0.0
 15
140.1178
 25
326.0362
 35
0.0
146
0.0
 13
0.0
 23
0.0
 33
0.0
 16
1.0
 26
0.0
 36
0.0
 17
0.0
 27
1.0
 37
0.0
 76
     0
330
1F
331
29
  0
MATERIAL
  5
3D
102
{ACAD_REACTORS
330
3B
102
}
330
3B
100
AcDbMaterial
  1
ByBlock
 72
     1
 94
      127
  0
MATERIAL
  5
3C
102
{ACAD_REACTORS
330
3B
102
}
330
3B
100
AcDbMaterial
  1
ByLayer
 72
     1
 94
      127
  0
MATERIAL
  5
3E
102
{ACAD_REACTORS
330
3B
102
}
330
3B
100
AcDbMaterial
  1
Global
 72
     1
 94
      127
  0
MLINESTYLE
  5
18
102
{ACAD_REACTORS
330
17
102
}
330
17
100
AcDbMlineStyle
  2
Standard
 70
     0
  3

 62
   256
 51
90.0
 52
90.0
 71
     2
 49
0.5
 62
   256
  6
BYLAYER
 49
-0.5
 62
   256
  6
BYLAYER
  0
ACDBPLACEHOLDER
  5
F
102
{ACAD_REACTORS
330
E
102
}
330
E
  0
VISUALSTYLE
  5
2F
102
{ACAD_REACTORS
330
2A
102
}
102
{ACAD_XDICTIONARY
360
4A
102
}
330
2A
100
AcDbVisualStyle
  2
2dWireframe
 70
     4
 71
     0
 72
     2
 73
     0
 90
        0
 40
-0.6
 41
-30.0
 62
     5
 63
     7
421
 16777215
 74
     1
 91
        4
 64
     7
 65
   257
 75
     1
175
     1
 42
1.0
 92
        0
 66
   257
 43
1.0
 76
     1
 77
     6
 78
     2
 67
     7
 79
     5
170
     0
171
     0
290
     0
174
     0
 93
        1
 44
0.0
173
     0
291
     0
 45
0.0
  0
VISUALSTYLE
  5
31
102
{ACAD_REACTORS
330
2A
102
}
102
{ACAD_XDICTIONARY
360
4E
102
}
330
2A
100
AcDbVisualStyle
  2
3D Hidden
 70
     6
 71
     1
 72
     2
 73
     2
 90
        0
 40
-0.6
 41
-30.0
 62
     5
 63
     7
421
 16777215
 74
     2
 91
        2
 64
     7
 65
   257
 75
     2
175
     1
 42
40.0
 92
        0
 66
   257
 43
1.0
 76
     1
 77
     6
 78
     2
 67
     7
 79
     3
170
     0
171
     0
290
     0
174
     0
 93
        1
 44
0.0
173
     0
291
     0
 45
0.0
  0
VISUALSTYLE
  5
30
102
{ACAD_REACTORS
330
2A
102
}
102
{ACAD_XDICTIONARY
360
4C
102
}
330
2A
100
AcDbVisualStyle
  2
3dWireframe
 70
     5
 71
     0
 72
     2
 73
     0
 90
        0
 40
-0.6
 41
-30.0
 62
     5
 63
     7
421
 16777215
 74
     1
 91
        4
 64
     7
 65
   257
 75
     1
175
     1
 42
1.0
 92
        0
 66
   257
 43
1.0
 76
     1
 77
     6
 78
     2
 67
     7
 79
     5
170
     0
171
     0
290
     0
174
     0
 93
        1
 44
0.0
173
     0
291
     0
 45
0.0
  0
VISUALSTYLE
  5
32
102
{ACAD_REACTORS
330
2A
102
}
102
{ACAD_XDICTIONARY
360
50
102
}
330
2A
100
AcDbVisualStyle
  2
Basic
 70
     7
 71
     1
 72
     0
 73
     1
 90
        0
 40
-0.6
 41
-30.0
 62
     5
 63
     7
421
 16777215
 74
     0
 91
        4
 64
     7
 65
   257
 75
     1
175
     1
 42
1.0
 92
        8
 66
     7
 43
1.0
 76
     1
 77
     6
 78
     2
 67
     7
 79
     5
170
     0
171
     0
290
     0
174
     0
 93
        1
 44
0.0
173
     0
291
     1
 45
0.0
  0
VISUALSTYLE
  5
36
102
{ACAD_REACTORS
330
2A
102
}
102
{ACAD_XDICTIONARY
360
58
102
}
330
2A
100
AcDbVisualStyle
  2
Brighten
 70
    12
 71
     2
 72
     2
 73
     0
 90
        0
 40
-0.6
 41
-30.0
 62
     5
 63
     7
421
 16777215
 74
     1
 91
        4
 64
     7
 65
   257
 75
     1
175
     1
 42
1.0
 92
        8
 66
     7
 43
1.0
 76
     1
 77
     6
 78
     2
 67
     7
 79
     5
170
     0
171
     0
290
     0
174
     0
 93
        1
 44
50.0
173
     0
291
     1
 45
0.0
  0
VISUALSTYLE
  5
3A
102
{ACAD_REACTORS
330
2A
102
}
102
{ACAD_XDICTIONARY
360
60
102
}
330
2A
100
AcDbVisualStyle
  2
ColorChange
 70
    16
 71
     2
 72
     2
 73
     3
 90
        0
 40
-0.6
 41
-30.0
 62
     5
 63
     8
421
  8421504
 74
     1
 91
        4
 64
     7
 65
   257
 75
     1
175
     1
 42
1.0
 92
        8
 66
     8
424
  8421504
 43
1.0
 76
     1
 77
     6
 78
     2
 67
     7
 79
     5
170
     0
171
     0
290
     0
174
     0
 93
        1
 44
0.0
173
     0
291
     1
 45
0.0
  0
VISUALSTYLE
  5
34
102
{ACAD_REACTORS
330
2A
102
}
102
{ACAD_XDICTIONARY
360
54
102
}
330
2A
100
AcDbVisualStyle
  2
Conceptual
 70
     9
 71
     3
 72
     2
 73
     0
 90
        0
 40
-0.6
 41
-30.0
 62
     5
 63
     7
421
 16777215
 74
     2
 91
        2
 64
     7
 65
   257
 75
     1
175
     1
 42
40.0
 92
        8
 66
     7
 43
1.0
 76
     1
 77
     6
 78
     2
 67
     7
 79
     3
170
     0
171
     0
290
     0
174
     0
 93
        1
 44
0.0
173
     0
291
     0
 45
0.0
  0
VISUALSTYLE
  5
35
102
{ACAD_REACTORS
330
2A
102
}
102
{ACAD_XDICTIONARY
360
56
102
}
330
2A
100
AcDbVisualStyle
  2
Dim
 70
    11
 71
     2
 72
     2
 73
     0
 90
        0
 40
-0.6
 41
-30.0
 62
     5
 63
     7
421
 16777215
 74
     1
 91
        4
 64
     7
 65
   257
 75
     1
175
     1
 42
1.0
 92
        8
 66
     7
 43
1.0
 76
     1
 77
     6
 78
     2
 67
     7
 79
     5
170
     0
171
     0
290
     0
174
     0
 93
        1
 44
-50.0
173
     0
291
     1
 45
0.0
  0
VISUALSTYLE
  5
39
102
{ACAD_REACTORS
330
2A
102
}
102
{ACAD_XDICTIONARY
360
5E
102
}
330
2A
100
AcDbVisualStyle
  2
Facepattern
 70
    15
 71
     2
 72
     2
 73
     0
 90
        0
 40
-0.6
 41
-30.0
 62
     5
 63
     7
421
 16777215
 74
     1
 91
        4
 64
     7
 65
   257
 75
     1
175
     1
 42
1.0
 92
        8
 66
     7
 43
1.0
 76
     1
 77
     6
 78
     2
 67
     7
 79
     5
170
     0
171
     0
290
     0
174
     0
 93
        1
 44
0.0
173
     0
291
     1
 45
0.0
  0
VISUALSTYLE
  5
2B
102
{ACAD_REACTORS
330
2A
102
}
102
{ACAD_XDICTIONARY
360
42
102
}
330
2A
100
AcDbVisualStyle
  2
Flat
 70
     0
 71
     2
 72
     1
 73
     1
 90
        2
 40
-0.6
 41
30.0
 62
     5
 63
     7
421
 16777215
 74
     0
 91
        4
 64
     7
 65
   257
 75
     1
175
     1
 42
1.0
 92
        8
 66
     7
 43
1.0
 76
     1
 77
     6
 78
     2
 67
     7
 79
     5
170
     0
171
     0
290
     0
174
     0
 93
       13
 44
0.0
173
     0
291
     1
 45
0.0
  0
VISUALSTYLE
  5
2C
102
{ACAD_REACTORS
330
2A
102
}
102
{ACAD_XDICTIONARY
360
44
102
}
330
2A
100
AcDbVisualStyle
  2
FlatWithEdges
 70
     1
 71
     2
 72
     1
 73
     1
 90
        2
 40
-0.6
 41
30.0
 62
     5
 63
     7
421
 16777215
 74
     1
 91
        4
 64
     7
 65
   257
 75
     1
175
     1
 42
1.0
 92
        0
 66
   257
 43
1.0
 76
     1
 77
     6
 78
     2
 67
     7
 79
     5
170
     0
171
     0
290
     0
174
     0
 93
       13
 44
0.0
173
     0
291
     1
 45
0.0
  0
VISUALSTYLE
  5
2D
102
{ACAD_REACTORS
330
2A
102
}
102
{ACAD_XDICTIONARY
360
46
102
}
330
2A
100
AcDbVisualStyle
  2
Gouraud
 70
     2
 71
     2
 72
     2
 73
     1
 90
        2
 40
-0.6
 41
30.0
 62
     5
 63
     7
421
 16777215
 74
     0
 91
        4
 64
     7
 65
   257
 75
     1
175
     1
 42
1.0
 92
        0
 66
     7
 43
1.0
 76
     1
 77
     6
 78
     2
 67
     7
 79
     5
170
     0
171
     0
290
     0
174
     0
 93
       13
 44
0.0
173
     0
291
     1
 45
0.0
  0
VISUALSTYLE
  5
2E
102
{ACAD_REACTORS
330
2A
102
}
102
{ACAD_XDICTIONARY
360
48
102
}
330
2A
100
AcDbVisualStyle
  2
GouraudWithEdges
 70
     3
 71
     2
 72
     2
 73
     1
 90
        2
 40
-0.6
 41
30.0
 62
     5
 63
     7
421
 16777215
 74
     1
 91
        4
 64
     7
 65
   257
 75
     1
175
     1
 42
1.0
 92
        0
 66
   257
 43
1.0
 76
     1
 77
     6
 78
     2
 67
     7
 79
     5
170
     0
171
     0
290
     0
174
     0
 93
       13
 44
0.0
173
     0
291
     1
 45
0.0
  0
VISUALSTYLE
  5
38
102
{ACAD_REACTORS
330
2A
102
}
102
{ACAD_XDICTIONARY
360
5C
102
}
330
2A
100
AcDbVisualStyle
  2
Linepattern
 70
    14
 71
     2
 72
     2
 73
     0
 90
        0
 40
-0.6
 41
-30.0
 62
     5
 63
     7
421
 16777215
 74
     1
 91
        4
 64
     7
 65
   257
 75
     7
175
     7
 42
1.0
 92
        8
 66
     7
 43
1.0
 76
     1
 77
     6
 78
     2
 67
     7
 79
     5
170
     0
171
     0
290
     0
174
     0
 93
        1
 44
0.0
173
     0
291
     1
 45
0.0
  0
VISUALSTYLE
  5
33
102
{ACAD_REACTORS
330
2A
102
}
102
{ACAD_XDICTIONARY
360
52
102
}
330
2A
100
AcDbVisualStyle
  2
Realistic
 70
     8
 71
     2
 72
     2
 73
     0
 90
        0
 40
-0.6
 41
-30.0
 62
     5
 63
     7
421
 16777215
 74
     1
 91
        0
 64
     7
 65
   257
 75
     1
175
     1
 42
1.0
 92
        8
 66
     8
424
  7895160
 43
1.0
 76
     1
 77
     6
 78
     2
 67
     7
 79
     5
170
     0
171
     0
290
     0
174
     0
 93
       13
 44
0.0
173
     0
291
     0
 45
0.0
  0
VISUALSTYLE
  5
37
102
{ACAD_REACTORS
330
2A
102
}
102
{ACAD_XDICTIONARY
360
5A
102
}
330
2A
100
AcDbVisualStyle
  2
Thicken
 70
    13
 71
     2
 72
     2
 73
     0
 90
        0
 40
-0.6
 41
-30.0
 62
     5
 63
     7
421
 16777215
 74
     1
 91
        4
 64
     7
 65
   257
 75
     1
175
     1
 42
1.0
 92
       12
 66
     7
 43
1.0
 76
     1
 77
     6
 78
     2
 67
     7
 79
     5
170
     0
171
     0
290
     0
174
     0
 93
        1
 44
0.0
173
     0
291
     1
 45
0.0
  0
DICTIONARY
  5
4A
330
2F
100
AcDbDictionary
280
     1
281
     1
  3
ACAD_XREC_ROUNDTRIP
360
4B
  0
DICTIONARY
  5
4E
330
31
100
AcDbDictionary
280
     1
281
     1
  3
ACAD_XREC_ROUNDTRIP
360
4F
  0
DICTIONARY
  5
4C
330
30
100
AcDbDictionary
280
     1
281
     1
  3
ACAD_XREC_ROUNDTRIP
360
4D
  0
DICTIONARY
  5
50
330
32
100
AcDbDictionary
280
     1
281
     1
  3
ACAD_XREC_ROUNDTRIP
360
51
  0
DICTIONARY
  5
58
330
36
100
AcDbDictionary
280
     1
281
     1
  3
ACAD_XREC_ROUNDTRIP
360
59
  0
DICTIONARY
  5
60
330
3A
100
AcDbDictionary
280
     1
281
     1
  3
ACAD_XREC_ROUNDTRIP
360
61
  0
DICTIONARY
  5
54
330
34
100
AcDbDictionary
280
     1
281
     1
  3
ACAD_XREC_ROUNDTRIP
360
55
  0
DICTIONARY
  5
56
330
35
100
AcDbDictionary
280
     1
281
     1
  3
ACAD_XREC_ROUNDTRIP
360
57
  0
DICTIONARY
  5
5E
330
39
100
AcDbDictionary
280
     1
281
     1
  3
ACAD_XREC_ROUNDTRIP
360
5F
  0
DICTIONARY
  5
42
330
2B
100
AcDbDictionary
280
     1
281
     1
  3
ACAD_XREC_ROUNDTRIP
360
43
  0
DICTIONARY
  5
44
330
2C
100
AcDbDictionary
280
     1
281
     1
  3
ACAD_XREC_ROUNDTRIP
360
45
  0
DICTIONARY
  5
46
330
2D
100
AcDbDictionary
280
     1
281
     1
  3
ACAD_XREC_ROUNDTRIP
360
47
  0
DICTIONARY
  5
48
330
2E
100
AcDbDictionary
280
     1
281
     1
  3
ACAD_XREC_ROUNDTRIP
360
49
  0
DICTIONARY
  5
5C
330
38
100
AcDbDictionary
280
     1
281
     1
  3
ACAD_XREC_ROUNDTRIP
360
5D
  0
DICTIONARY
  5
52
330
33
100
AcDbDictionary
280
     1
281
     1
  3
ACAD_XREC_ROUNDTRIP
360
53
  0
DICTIONARY
  5
5A
330
37
100
AcDbDictionary
280
     1
281
     1
  3
ACAD_XREC_ROUNDTRIP
360
5B
  0
XRECORD
  5
4B
102
{ACAD_REACTORS
330
4A
102
}
330
4A
100
AcDbXrecord
280
     1
102
RTVSPropertyOp0
 70
     1
102
RTVSPropertyOp1
 70
     1
102
RTVSPropertyOp2
 70
     1
102
RTVSPropertyOp3
 70
     1
102
RTVSPropertyOp4
 70
     1
102
RTVSPropertyOp5
 70
     1
102
RTVSPropertyOp6
 70
     1
102
RTVSPropertyOp7
 70
     1
102
RTVSPropertyOp8
 70
     1
102
RTVSPropertyOp9
 70
     1
102
RTVSPropertyOp10
 70
     1
102
RTVSPropertyOp11
 70
     1
102
RTVSPropertyOp12
 70
     1
102
RTVSPropertyOp13
 70
     1
102
RTVSPropertyOp14
 70
     1
102
RTVSPropertyOp15
 70
     1
102
RTVSPropertyOp16
 70
     1
102
RTVSPropertyOp17
 70
     1
102
RTVSPropertyOp18
 70
     1
102
RTVSPropertyOp19
 70
     1
102
RTVSPropertyOp20
 70
     1
102
RTVSPropertyOp21
 70
     1
102
RTVSPropertyOp22
 70
     1
102
RTVSPropertyOp23
 70
     1
102
RTVSPropertyOp24
 70
     1
102
RTVSPropertyOp25
 70
     1
102
RTVSPropertyOp26
 70
     1
102
RTVSPropertyOp27
 70
     1
  0
XRECORD
  5
4F
102
{ACAD_REACTORS
330
4E
102
}
330
4E
100
AcDbXrecord
280
     1
102
RTVSPropertyOp0
 70
     1
102
RTVSPropertyOp1
 70
     1
102
RTVSPropertyOp2
 70
     1
102
RTVSPropertyOp3
 70
     1
102
RTVSPropertyOp4
 70
     1
102
RTVSPropertyOp5
 70
     1
102
RTVSPropertyOp6
 70
     1
102
RTVSPropertyOp7
 70
     1
102
RTVSPropertyOp8
 70
     1
102
RTVSPropertyOp9
 70
     1
102
RTVSPropertyOp10
 70
     1
102
RTVSPropertyOp11
 70
     1
102
RTVSPropertyOp12
 70
     1
102
RTVSPropertyOp13
 70
     1
102
RTVSPropertyOp14
 70
     1
102
RTVSPropertyOp15
 70
     1
102
RTVSPropertyOp16
 70
     1
102
RTVSPropertyOp17
 70
     1
102
RTVSPropertyOp18
 70
     1
102
RTVSPropertyOp19
 70
     1
102
RTVSPropertyOp20
 70
     1
102
RTVSPropertyOp21
 70
     1
102
RTVSPropertyOp22
 70
     1
102
RTVSPropertyOp23
 70
     1
102
RTVSPropertyOp24
 70
     1
102
RTVSPropertyOp25
 70
     1
102
RTVSPropertyOp26
 70
     1
102
RTVSPropertyOp27
 70
     1
  0
XRECORD
  5
4D
102
{ACAD_REACTORS
330
4C
102
}
330
4C
100
AcDbXrecord
280
     1
102
RTVSPropertyOp0
 70
     1
102
RTVSPropertyOp1
 70
     1
102
RTVSPropertyOp2
 70
     1
102
RTVSPropertyOp3
 70
     1
102
RTVSPropertyOp4
 70
     1
102
RTVSPropertyOp5
 70
     1
102
RTVSPropertyOp6
 70
     1
102
RTVSPropertyOp7
 70
     1
102
RTVSPropertyOp8
 70
     1
102
RTVSPropertyOp9
 70
     1
102
RTVSPropertyOp10
 70
     1
102
RTVSPropertyOp11
 70
     1
102
RTVSPropertyOp12
 70
     1
102
RTVSPropertyOp13
 70
     1
102
RTVSPropertyOp14
 70
     1
102
RTVSPropertyOp15
 70
     1
102
RTVSPropertyOp16
 70
     1
102
RTVSPropertyOp17
 70
     1
102
RTVSPropertyOp18
 70
     1
102
RTVSPropertyOp19
 70
     1
102
RTVSPropertyOp20
 70
     1
102
RTVSPropertyOp21
 70
     1
102
RTVSPropertyOp22
 70
     1
102
RTVSPropertyOp23
 70
     1
102
RTVSPropertyOp24
 70
     1
102
RTVSPropertyOp25
 70
     1
102
RTVSPropertyOp26
 70
     1
102
RTVSPropertyOp27
 70
     1
  0
XRECORD
  5
51
102
{ACAD_REACTORS
330
50
102
}
330
50
100
AcDbXrecord
280
     1
102
RTVSPropertyOp0
 70
     1
102
RTVSPropertyOp1
 70
     1
102
RTVSPropertyOp2
 70
     1
102
RTVSPropertyOp3
 70
     1
102
RTVSPropertyOp4
 70
     1
102
RTVSPropertyOp5
 70
     1
102
RTVSPropertyOp6
 70
     1
102
RTVSPropertyOp7
 70
     1
102
RTVSPropertyOp8
 70
     1
102
RTVSPropertyOp9
 70
     1
102
RTVSPropertyOp10
 70
     1
102
RTVSPropertyOp11
 70
     1
102
RTVSPropertyOp12
 70
     1
102
RTVSPropertyOp13
 70
     1
102
RTVSPropertyOp14
 70
     1
102
RTVSPropertyOp15
 70
     1
102
RTVSPropertyOp16
 70
     1
102
RTVSPropertyOp17
 70
     1
102
RTVSPropertyOp18
 70
     1
102
RTVSPropertyOp19
 70
     1
102
RTVSPropertyOp20
 70
     1
102
RTVSPropertyOp21
 70
     1
102
RTVSPropertyOp22
 70
     1
102
RTVSPropertyOp23
 70
     1
102
RTVSPropertyOp24
 70
     1
102
RTVSPropertyOp25
 70
     1
102
RTVSPropertyOp26
 70
     1
102
RTVSPropertyOp27
 70
     1
  0
XRECORD
  5
59
102
{ACAD_REACTORS
330
58
102
}
330
58
100
AcDbXrecord
280
     1
102
RTVSPropertyOp0
 70
     1
102
RTVSPropertyOp1
 70
     1
102
RTVSPropertyOp2
 70
     1
102
RTVSPropertyOp3
 70
     1
102
RTVSPropertyOp4
 70
     1
102
RTVSPropertyOp5
 70
     1
102
RTVSPropertyOp6
 70
     1
102
RTVSPropertyOp7
 70
     1
102
RTVSPropertyOp8
 70
     1
102
RTVSPropertyOp9
 70
     1
102
RTVSPropertyOp10
 70
     1
102
RTVSPropertyOp11
 70
     1
102
RTVSPropertyOp12
 70
     1
102
RTVSPropertyOp13
 70
     1
102
RTVSPropertyOp14
 70
     1
102
RTVSPropertyOp15
 70
     1
102
RTVSPropertyOp16
 70
     1
102
RTVSPropertyOp17
 70
     1
102
RTVSPropertyOp18
 70
     1
102
RTVSPropertyOp19
 70
     1
102
RTVSPropertyOp20
 70
     1
102
RTVSPropertyOp21
 70
     1
102
RTVSPropertyOp22
 70
     1
102
RTVSPropertyOp23
 70
     1
102
RTVSPropertyOp24
 70
     1
102
RTVSPropertyOp25
 70
     1
102
RTVSPropertyOp26
 70
     1
102
RTVSPropertyOp27
 70
     1
  0
XRECORD
  5
61
102
{ACAD_REACTORS
330
60
102
}
330
60
100
AcDbXrecord
280
     1
102
RTVSPropertyOp0
 70
     1
102
RTVSPropertyOp1
 70
     1
102
RTVSPropertyOp2
 70
     1
102
RTVSPropertyOp3
 70
     1
102
RTVSPropertyOp4
 70
     1
102
RTVSPropertyOp5
 70
     1
102
RTVSPropertyOp6
 70
     1
102
RTVSPropertyOp7
 70
     1
102
RTVSPropertyOp8
 70
     1
102
RTVSPropertyOp9
 70
     1
102
RTVSPropertyOp10
 70
     1
102
RTVSPropertyOp11
 70
     1
102
RTVSPropertyOp12
 70
     1
102
RTVSPropertyOp13
 70
     1
102
RTVSPropertyOp14
 70
     1
102
RTVSPropertyOp15
 70
     1
102
RTVSPropertyOp16
 70
     1
102
RTVSPropertyOp17
 70
     1
102
RTVSPropertyOp18
 70
     1
102
RTVSPropertyOp19
 70
     1
102
RTVSPropertyOp20
 70
     1
102
RTVSPropertyOp21
 70
     1
102
RTVSPropertyOp22
 70
     1
102
RTVSPropertyOp23
 70
     1
102
RTVSPropertyOp24
 70
     1
102
RTVSPropertyOp25
 70
     1
102
RTVSPropertyOp26
 70
     1
102
RTVSPropertyOp27
 70
     1
  0
XRECORD
  5
55
102
{ACAD_REACTORS
330
54
102
}
330
54
100
AcDbXrecord
280
     1
102
RTVSPropertyOp0
 70
     1
102
RTVSPropertyOp1
 70
     1
102
RTVSPropertyOp2
 70
     1
102
RTVSPropertyOp3
 70
     1
102
RTVSPropertyOp4
 70
     1
102
RTVSPropertyOp5
 70
     1
102
RTVSPropertyOp6
 70
     1
102
RTVSPropertyOp7
 70
     1
102
RTVSPropertyOp8
 70
     1
102
RTVSPropertyOp9
 70
     1
102
RTVSPropertyOp10
 70
     1
102
RTVSPropertyOp11
 70
     1
102
RTVSPropertyOp12
 70
     1
102
RTVSPropertyOp13
 70
     1
102
RTVSPropertyOp14
 70
     1
102
RTVSPropertyOp15
 70
     1
102
RTVSPropertyOp16
 70
     1
102
RTVSPropertyOp17
 70
     1
102
RTVSPropertyOp18
 70
     1
102
RTVSPropertyOp19
 70
     1
102
RTVSPropertyOp20
 70
     1
102
RTVSPropertyOp21
 70
     1
102
RTVSPropertyOp22
 70
     1
102
RTVSPropertyOp23
 70
     1
102
RTVSPropertyOp24
 70
     1
102
RTVSPropertyOp25
 70
     1
102
RTVSPropertyOp26
 70
     1
102
RTVSPropertyOp27
 70
     1
  0
XRECORD
  5
57
102
{ACAD_REACTORS
330
56
102
}
330
56
100
AcDbXrecord
280
     1
102
RTVSPropertyOp0
 70
     1
102
RTVSPropertyOp1
 70
     1
102
RTVSPropertyOp2
 70
     1
102
RTVSPropertyOp3
 70
     1
102
RTVSPropertyOp4
 70
     1
102
RTVSPropertyOp5
 70
     1
102
RTVSPropertyOp6
 70
     1
102
RTVSPropertyOp7
 70
     1
102
RTVSPropertyOp8
 70
     1
102
RTVSPropertyOp9
 70
     1
102
RTVSPropertyOp10
 70
     1
102
RTVSPropertyOp11
 70
     1
102
RTVSPropertyOp12
 70
     1
102
RTVSPropertyOp13
 70
     1
102
RTVSPropertyOp14
 70
     1
102
RTVSPropertyOp15
 70
     1
102
RTVSPropertyOp16
 70
     1
102
RTVSPropertyOp17
 70
     1
102
RTVSPropertyOp18
 70
     1
102
RTVSPropertyOp19
 70
     1
102
RTVSPropertyOp20
 70
     1
102
RTVSPropertyOp21
 70
     1
102
RTVSPropertyOp22
 70
     1
102
RTVSPropertyOp23
 70
     1
102
RTVSPropertyOp24
 70
     1
102
RTVSPropertyOp25
 70
     1
102
RTVSPropertyOp26
 70
     1
102
RTVSPropertyOp27
 70
     1
  0
XRECORD
  5
5F
102
{ACAD_REACTORS
330
5E
102
}
330
5E
100
AcDbXrecord
280
     1
102
RTVSPropertyOp0
 70
     1
102
RTVSPropertyOp1
 70
     1
102
RTVSPropertyOp2
 70
     1
102
RTVSPropertyOp3
 70
     1
102
RTVSPropertyOp4
 70
     1
102
RTVSPropertyOp5
 70
     1
102
RTVSPropertyOp6
 70
     1
102
RTVSPropertyOp7
 70
     1
102
RTVSPropertyOp8
 70
     1
102
RTVSPropertyOp9
 70
     1
102
RTVSPropertyOp10
 70
     1
102
RTVSPropertyOp11
 70
     1
102
RTVSPropertyOp12
 70
     1
102
RTVSPropertyOp13
 70
     1
102
RTVSPropertyOp14
 70
     1
102
RTVSPropertyOp15
 70
     1
102
RTVSPropertyOp16
 70
     1
102
RTVSPropertyOp17
 70
     1
102
RTVSPropertyOp18
 70
     1
102
RTVSPropertyOp19
 70
     1
102
RTVSPropertyOp20
 70
     1
102
RTVSPropertyOp21
 70
     1
102
RTVSPropertyOp22
 70
     1
102
RTVSPropertyOp23
 70
     1
102
RTVSPropertyOp24
 70
     1
102
RTVSPropertyOp25
 70
     1
102
RTVSPropertyOp26
 70
     1
102
RTVSPropertyOp27
 70
     1
  0
XRECORD
  5
43
102
{ACAD_REACTORS
330
42
102
}
330
42
100
AcDbXrecord
280
     1
102
RTVSPropertyOp0
 70
     1
102
RTVSPropertyOp1
 70
     1
102
RTVSPropertyOp2
 70
     1
102
RTVSPropertyOp3
 70
     1
102
RTVSPropertyOp4
 70
     1
102
RTVSPropertyOp5
 70
     1
102
RTVSPropertyOp6
 70
     1
102
RTVSPropertyOp7
 70
     1
102
RTVSPropertyOp8
 70
     1
102
RTVSPropertyOp9
 70
     1
102
RTVSPropertyOp10
 70
     1
102
RTVSPropertyOp11
 70
     1
102
RTVSPropertyOp12
 70
     1
102
RTVSPropertyOp13
 70
     1
102
RTVSPropertyOp14
 70
     1
102
RTVSPropertyOp15
 70
     1
102
RTVSPropertyOp16
 70
     1
102
RTVSPropertyOp17
 70
     1
102
RTVSPropertyOp18
 70
     1
102
RTVSPropertyOp19
 70
     1
102
RTVSPropertyOp20
 70
     1
102
RTVSPropertyOp21
 70
     1
102
RTVSPropertyOp22
 70
     1
102
RTVSPropertyOp23
 70
     1
102
RTVSPropertyOp24
 70
     1
102
RTVSPropertyOp25
 70
     1
102
RTVSPropertyOp26
 70
     1
102
RTVSPropertyOp27
 70
     1
  0
XRECORD
  5
45
102
{ACAD_REACTORS
330
44
102
}
330
44
100
AcDbXrecord
280
     1
102
RTVSPropertyOp0
 70
     1
102
RTVSPropertyOp1
 70
     1
102
RTVSPropertyOp2
 70
     1
102
RTVSPropertyOp3
 70
     1
102
RTVSPropertyOp4
 70
     1
102
RTVSPropertyOp5
 70
     1
102
RTVSPropertyOp6
 70
     1
102
RTVSPropertyOp7
 70
     1
102
RTVSPropertyOp8
 70
     1
102
RTVSPropertyOp9
 70
     1
102
RTVSPropertyOp10
 70
     1
102
RTVSPropertyOp11
 70
     1
102
RTVSPropertyOp12
 70
     1
102
RTVSPropertyOp13
 70
     1
102
RTVSPropertyOp14
 70
     1
102
RTVSPropertyOp15
 70
     1
102
RTVSPropertyOp16
 70
     1
102
RTVSPropertyOp17
 70
     1
102
RTVSPropertyOp18
 70
     1
102
RTVSPropertyOp19
 70
     1
102
RTVSPropertyOp20
 70
     1
102
RTVSPropertyOp21
 70
     1
102
RTVSPropertyOp22
 70
     1
102
RTVSPropertyOp23
 70
     1
102
RTVSPropertyOp24
 70
     1
102
RTVSPropertyOp25
 70
     1
102
RTVSPropertyOp26
 70
     1
102
RTVSPropertyOp27
 70
     1
  0
XRECORD
  5
47
102
{ACAD_REACTORS
330
46
102
}
330
46
100
AcDbXrecord
280
     1
102
RTVSPropertyOp0
 70
     1
102
RTVSPropertyOp1
 70
     1
102
RTVSPropertyOp2
 70
     1
102
RTVSPropertyOp3
 70
     1
102
RTVSPropertyOp4
 70
     1
102
RTVSPropertyOp5
 70
     1
102
RTVSPropertyOp6
 70
     1
102
RTVSPropertyOp7
 70
     1
102
RTVSPropertyOp8
 70
     1
102
RTVSPropertyOp9
 70
     1
102
RTVSPropertyOp10
 70
     1
102
RTVSPropertyOp11
 70
     1
102
RTVSPropertyOp12
 70
     1
102
RTVSPropertyOp13
 70
     1
102
RTVSPropertyOp14
 70
     1
102
RTVSPropertyOp15
 70
     1
102
RTVSPropertyOp16
 70
     1
102
RTVSPropertyOp17
 70
     1
102
RTVSPropertyOp18
 70
     1
102
RTVSPropertyOp19
 70
     1
102
RTVSPropertyOp20
 70
     1
102
RTVSPropertyOp21
 70
     1
102
RTVSPropertyOp22
 70
     1
102
RTVSPropertyOp23
 70
     1
102
RTVSPropertyOp24
 70
     1
102
RTVSPropertyOp25
 70
     1
102
RTVSPropertyOp26
 70
     1
102
RTVSPropertyOp27
 70
     1
  0
XRECORD
  5
49
102
{ACAD_REACTORS
330
48
102
}
330
48
100
AcDbXrecord
280
     1
102
RTVSPropertyOp0
 70
     1
102
RTVSPropertyOp1
 70
     1
102
RTVSPropertyOp2
 70
     1
102
RTVSPropertyOp3
 70
     1
102
RTVSPropertyOp4
 70
     1
102
RTVSPropertyOp5
 70
     1
102
RTVSPropertyOp6
 70
     1
102
RTVSPropertyOp7
 70
     1
102
RTVSPropertyOp8
 70
     1
102
RTVSPropertyOp9
 70
     1
102
RTVSPropertyOp10
 70
     1
102
RTVSPropertyOp11
 70
     1
102
RTVSPropertyOp12
 70
     1
102
RTVSPropertyOp13
 70
     1
102
RTVSPropertyOp14
 70
     1
102
RTVSPropertyOp15
 70
     1
102
RTVSPropertyOp16
 70
     1
102
RTVSPropertyOp17
 70
     1
102
RTVSPropertyOp18
 70
     1
102
RTVSPropertyOp19
 70
     1
102
RTVSPropertyOp20
 70
     1
102
RTVSPropertyOp21
 70
     1
102
RTVSPropertyOp22
 70
     1
102
RTVSPropertyOp23
 70
     1
102
RTVSPropertyOp24
 70
     1
102
RTVSPropertyOp25
 70
     1
102
RTVSPropertyOp26
 70
     1
102
RTVSPropertyOp27
 70
     1
  0
XRECORD
  5
5D
102
{ACAD_REACTORS
330
5C
102
}
330
5C
100
AcDbXrecord
280
     1
102
RTVSPropertyOp0
 70
     1
102
RTVSPropertyOp1
 70
     1
102
RTVSPropertyOp2
 70
     1
102
RTVSPropertyOp3
 70
     1
102
RTVSPropertyOp4
 70
     1
102
RTVSPropertyOp5
 70
     1
102
RTVSPropertyOp6
 70
     1
102
RTVSPropertyOp7
 70
     1
102
RTVSPropertyOp8
 70
     1
102
RTVSPropertyOp9
 70
     1
102
RTVSPropertyOp10
 70
     1
102
RTVSPropertyOp11
 70
     1
102
RTVSPropertyOp12
 70
     1
102
RTVSPropertyOp13
 70
     1
102
RTVSPropertyOp14
 70
     1
102
RTVSPropertyOp15
 70
     1
102
RTVSPropertyOp16
 70
     1
102
RTVSPropertyOp17
 70
     1
102
RTVSPropertyOp18
 70
     1
102
RTVSPropertyOp19
 70
     1
102
RTVSPropertyOp20
 70
     1
102
RTVSPropertyOp21
 70
     1
102
RTVSPropertyOp22
 70
     1
102
RTVSPropertyOp23
 70
     1
102
RTVSPropertyOp24
 70
     1
102
RTVSPropertyOp25
 70
     1
102
RTVSPropertyOp26
 70
     1
102
RTVSPropertyOp27
 70
     1
  0
XRECORD
  5
53
102
{ACAD_REACTORS
330
52
102
}
330
52
100
AcDbXrecord
280
     1
102
RTVSPropertyOp0
 70
     1
102
RTVSPropertyOp1
 70
     1
102
RTVSPropertyOp2
 70
     1
102
RTVSPropertyOp3
 70
     1
102
RTVSPropertyOp4
 70
     1
102
RTVSPropertyOp5
 70
     1
102
RTVSPropertyOp6
 70
     1
102
RTVSPropertyOp7
 70
     1
102
RTVSPropertyOp8
 70
     1
102
RTVSPropertyOp9
 70
     1
102
RTVSPropertyOp10
 70
     1
102
RTVSPropertyOp11
 70
     1
102
RTVSPropertyOp12
 70
     1
102
RTVSPropertyOp13
 70
     1
102
RTVSPropertyOp14
 70
     1
102
RTVSPropertyOp15
 70
     1
102
RTVSPropertyOp16
 70
     1
102
RTVSPropertyOp17
 70
     1
102
RTVSPropertyOp18
 70
     1
102
RTVSPropertyOp19
 70
     1
102
RTVSPropertyOp20
 70
     1
102
RTVSPropertyOp21
 70
     1
102
RTVSPropertyOp22
 70
     1
102
RTVSPropertyOp23
 70
     1
102
RTVSPropertyOp24
 70
     1
102
RTVSPropertyOp25
 70
     1
102
RTVSPropertyOp26
 70
     1
102
RTVSPropertyOp27
 70
     1
  0
XRECORD
  5
5B
102
{ACAD_REACTORS
330
5A
102
}
330
5A
100
AcDbXrecord
280
     1
102
RTVSPropertyOp0
 70
     1
102
RTVSPropertyOp1
 70
     1
102
RTVSPropertyOp2
 70
     1
102
RTVSPropertyOp3
 70
     1
102
RTVSPropertyOp4
 70
     1
102
RTVSPropertyOp5
 70
     1
102
RTVSPropertyOp6
 70
     1
102
RTVSPropertyOp7
 70
     1
102
RTVSPropertyOp8
 70
     1
102
RTVSPropertyOp9
 70
     1
102
RTVSPropertyOp10
 70
     1
102
RTVSPropertyOp11
 70
     1
102
RTVSPropertyOp12
 70
     1
102
RTVSPropertyOp13
 70
     1
102
RTVSPropertyOp14
 70
     1
102
RTVSPropertyOp15
 70
     1
102
RTVSPropertyOp16
 70
     1
102
RTVSPropertyOp17
 70
     1
102
RTVSPropertyOp18
 70
     1
102
RTVSPropertyOp19
 70
     1
102
RTVSPropertyOp20
 70
     1
102
RTVSPropertyOp21
 70
     1
102
RTVSPropertyOp22
 70
     1
102
RTVSPropertyOp23
 70
     1
102
RTVSPropertyOp24
 70
     1
102
RTVSPropertyOp25
 70
     1
102
RTVSPropertyOp26
 70
     1
102
RTVSPropertyOp27
 70
     1
  0
ENDSEC
  0
EOF
